<svg width="33" height="23" viewBox="0 0 33 23" fill="none" xmlns="http://www.w3.org/2000/svg">
<g filter="url(#filter0_dd_25_2492)">
<g clip-path="url(#clip0_25_2492)">
<rect x="2" y="1.19043" width="28.6003" height="19.0237" fill="white"/>
<path d="M2 1.19043H30.6003V20.2142H2V1.19043Z" fill="black"/>
<path d="M2 1.19043H30.6003V13.8729H2V1.19043Z" fill="white"/>
<path d="M2 1.19043H30.6003V7.53168H2V1.19043Z" fill="#CE1126"/>
<path d="M16.2357 10.7362L18.4076 12.7524L18.253 9.09057C18.2303 8.53559 17.748 8.66292 17.3977 8.86311C17.0428 9.09057 16.6379 9.09057 16.2101 8.94039C15.7825 9.09056 15.3776 9.09056 15.0227 8.86311C14.6724 8.66293 14.1902 8.53558 14.1674 9.09056L14.0127 12.7524L16.2357 10.7362Z" fill="white" stroke="#C09300" stroke-width="0.0402863" stroke-linejoin="round"/>
<path d="M14.4167 8.96338L14.2665 12.5253L14.0117 12.7526L14.1664 9.0908C14.2392 9.04076 14.3666 8.96342 14.4167 8.96342V8.96338ZM14.7217 9.21835L14.5943 12.1979L14.3396 12.4586L14.4943 9.01809C14.5444 9.0681 14.6945 9.19092 14.7217 9.2182L14.7217 9.21835ZM14.9992 9.44573L14.8992 11.9308L14.6945 12.1309L14.8219 9.2956C14.8718 9.34565 14.9719 9.41846 14.9992 9.44573ZM15.2995 9.57321L15.1994 11.6912L14.9992 11.8536L15.0993 9.49589C15.1494 9.51863 15.2495 9.57321 15.2995 9.57321ZM15.577 9.57321L15.5042 11.3382L15.2995 11.5384L15.3768 9.59599C15.4268 9.59599 15.5542 9.59598 15.577 9.57321Z" fill="#C09300"/>
<path d="M18.0023 8.96338L18.1524 12.5253L18.4072 12.7526L18.2525 9.0908C18.1798 9.04076 18.0523 8.96342 18.0023 8.96342V8.96338ZM17.6972 9.21835L17.8246 12.1979L18.0793 12.4586L17.9247 9.01809C17.8746 9.0681 17.7244 9.19092 17.6972 9.2182L17.6972 9.21835ZM17.4197 9.44573L17.5198 11.9308L17.7245 12.1309L17.5971 9.2956C17.5471 9.34565 17.4471 9.41846 17.4197 9.44573ZM17.1194 9.57321L17.2195 11.6912L17.4197 11.8536L17.3196 9.49589C17.2695 9.51863 17.1695 9.57321 17.1194 9.57321ZM16.8419 9.57321L16.9148 11.3382L17.1195 11.5384L17.0421 9.59599C16.9921 9.59599 16.8647 9.59598 16.8419 9.57321Z" fill="#C09300"/>
<path d="M16.3097 11.1377L16.6146 12.5253L16.5144 12.6253L16.4098 12.548L16.2369 11.3106L16.3097 12.548L16.2096 12.6754L16.1095 12.548L16.1823 11.3106L16.0095 12.548L15.9047 12.6253L15.8047 12.5253L16.1095 11.1377L16.3097 11.1377Z" fill="#C09300" stroke="#C09300" stroke-width="0.0340549"/>
<path d="M15.527 10.5283L14.9219 12.6754L15.7545 12.8028L16.1093 11.1879L15.5269 10.5283L15.527 10.5283Z" fill="white" stroke="#C09300" stroke-width="0.0377065" stroke-linejoin="round"/>
<path d="M15.3271 11.2609L15.3999 11.4382L15.7933 11.0625" stroke="#C09300" stroke-width="0.0402716" stroke-linejoin="round"/>
<path d="M15.5997 10.8159L15.682 11.588L15.9323 11.2605M15.8322 11.3877L15.9688 11.8594M16.0224 11.6861L15.746 12.106M15.8322 12.5251L15.7437 12.1066L15.6665 11.6809L15.4813 11.9317L15.4 11.6425L15.1408 11.9084L15.2726 12.3921L15.4546 12.0929L15.5547 12.3977L15.7415 12.1072M15.0996 12.6251L15.2677 12.3891L15.3772 12.7524L15.5273 12.4977L15.6274 12.8025" stroke="#C09300" stroke-width="0.0402716" stroke-linejoin="round"/>
<path d="M16.892 10.5283L17.4971 12.6754L16.6645 12.8028L16.3097 11.1879L16.892 10.5283L16.892 10.5283Z" fill="white" stroke="#C09300" stroke-width="0.0377065" stroke-linejoin="round"/>
<path d="M17.0918 11.2609L17.019 11.4382L16.6256 11.0625" stroke="#C09300" stroke-width="0.0402716" stroke-linejoin="round"/>
<path d="M16.8192 10.8159L16.7369 11.588L16.4867 11.2605M16.5868 11.3877L16.4501 11.8594M16.3965 11.6861L16.673 12.106M16.5867 12.5251L16.6752 12.1066L16.7525 11.6809L16.9377 11.9317L17.0189 11.6425L17.2781 11.9084L17.1463 12.3921L16.9644 12.0929L16.8643 12.3977L16.6775 12.1072M17.3193 12.6251L17.1513 12.3891L17.0418 12.7524L16.8916 12.4977L16.7915 12.8025" stroke="#C09300" stroke-width="0.0402716" stroke-linejoin="round"/>
<path d="M16.2099 13.6347C16.8424 13.6347 17.4475 13.5846 17.8023 13.4845C17.9525 13.4573 17.9525 13.38 17.9525 13.2798C18.1027 13.2298 18.0253 13.0524 18.1299 13.0524C18.0253 13.0798 18.0025 12.875 17.8751 12.9024C17.8751 12.7249 17.6977 12.7022 17.5476 12.7521C17.2472 12.8523 16.7149 12.875 16.2099 12.875C15.7049 12.8523 15.1771 12.8523 14.8723 12.7521C14.7222 12.7022 14.5448 12.7249 14.5448 12.9024C14.4174 12.875 14.3947 13.0798 14.29 13.0524C14.3947 13.0524 14.3173 13.2298 14.4674 13.2798C14.4674 13.38 14.4674 13.4573 14.6221 13.4845C14.9724 13.5846 15.5776 13.6347 16.2099 13.6347H16.2099Z" fill="white" stroke="#C09300" stroke-width="0.0754131" stroke-linejoin="round"/>
<path d="M15.3509 12.6746C15.5556 12.7019 15.7831 12.7246 15.9606 12.7019C16.0606 12.7019 16.1334 12.8747 15.9333 12.9021C15.7559 12.9248 15.4783 12.9021 15.3282 12.8747C15.2008 12.852 14.9233 12.802 14.7458 12.7518C14.5684 12.6746 14.6958 12.5245 14.7958 12.5472C14.9506 12.5972 15.1508 12.6473 15.351 12.6746L15.3509 12.6746ZM17.0707 12.6746C16.866 12.7019 16.6385 12.7246 16.4656 12.7019C16.3609 12.7019 16.2881 12.8747 16.4884 12.9021C16.6658 12.9248 16.9433 12.9021 17.0934 12.8747C17.2208 12.852 17.4983 12.802 17.6757 12.7518C17.8532 12.6746 17.7259 12.5245 17.6257 12.5472C17.471 12.5972 17.2709 12.6473 17.0707 12.6746Z" fill="white" stroke="#C09300" stroke-width="0.0402716" stroke-linejoin="round"/>
<path d="M14.7223 12.5746C14.5677 12.5473 14.4949 12.7247 14.545 12.8247C14.5677 12.7747 14.6723 12.7747 14.6951 12.7247C14.7223 12.6474 14.6723 12.6474 14.7223 12.5746ZM15.3274 13.0398C15.3274 12.9398 15.4275 12.9521 15.4275 12.852C15.4275 12.802 15.4002 12.7246 15.3502 12.7246C15.3001 12.7246 15.25 12.7747 15.25 12.8247C15.2273 12.9248 15.3274 12.9399 15.3274 13.0398ZM16.0476 12.7519C16.1976 12.7519 16.1828 12.9521 16.1099 13.0522C16.1099 12.9794 15.9826 12.9521 15.9826 12.9021C15.9826 12.8247 16.0976 12.8247 16.0476 12.7519ZM17.6976 12.5746C17.8523 12.5473 17.9251 12.7247 17.875 12.8247C17.8523 12.7747 17.7477 12.7747 17.7249 12.7247C17.6976 12.6474 17.7477 12.6474 17.6976 12.5746ZM17.0925 13.0398C17.0925 12.9398 16.9925 12.9521 16.9925 12.852C16.9925 12.802 17.0198 12.7246 17.0699 12.7246C17.1199 12.7246 17.1699 12.7747 17.1699 12.8247C17.1927 12.9248 17.0925 12.9399 17.0925 13.0398ZM16.3723 12.7519C16.2223 12.7519 16.2372 12.9521 16.31 13.0522C16.31 12.9794 16.4373 12.9521 16.4373 12.9021C16.4373 12.8247 16.3223 12.8247 16.3723 12.7519Z" fill="white" stroke="#C09300" stroke-width="0.0402716" stroke-linejoin="round"/>
<path d="M14.7726 12.6251C14.8227 12.6251 14.9 12.6479 14.9228 12.6751L14.7725 12.625L14.7726 12.6251ZM15.0225 12.7025C15.0498 12.7025 15.1499 12.7252 15.2 12.7524L15.0224 12.7023L15.0225 12.7025ZM15.9327 12.8024C15.8826 12.8024 15.7825 12.8024 15.7553 12.825L15.9326 12.8022L15.9327 12.8024ZM15.6552 12.8024C15.6279 12.775 15.5278 12.775 15.4778 12.8024H15.6551H15.6552ZM17.648 12.6251C17.598 12.6251 17.5251 12.6479 17.4978 12.6751L17.648 12.6251ZM17.3978 12.7025C17.3705 12.7025 17.2704 12.7252 17.2203 12.7524L17.3979 12.7023L17.3978 12.7025ZM16.4876 12.8024C16.5377 12.8024 16.6378 12.8024 16.6651 12.825L16.4875 12.8022L16.4876 12.8024ZM16.7651 12.8024C16.7924 12.775 16.8925 12.775 16.9425 12.8024H16.765H16.7651Z" fill="white" stroke="#C09300" stroke-width="0.0282522" stroke-linejoin="round"/>
<path d="M14.7294 13.0252C14.7124 13.022 14.7036 13.0086 14.7078 12.9927C14.713 12.9734 14.7285 12.9624 14.7431 12.9675C14.7524 12.9708 14.7694 12.988 14.7695 12.9941C14.7696 13.0012 14.7606 13.018 14.7567 13.018C14.755 13.018 14.7525 13.0195 14.751 13.0213C14.7478 13.025 14.7379 13.0268 14.7294 13.0252ZM16.4714 13.1495C16.4651 13.1472 16.455 13.1331 16.455 13.1266C16.4551 13.1143 16.4732 13.0943 16.4845 13.0942C16.49 13.0941 16.5053 13.102 16.5109 13.108C16.5212 13.1187 16.519 13.1363 16.506 13.1463C16.4997 13.1512 16.4807 13.153 16.4714 13.1495L16.4714 13.1495ZM16.4828 13.2282C16.4694 13.2237 16.4646 13.2171 16.4635 13.2024C16.4624 13.187 16.4639 13.1846 16.4801 13.1757L16.4917 13.1694L16.5027 13.1743C16.5179 13.1811 16.5247 13.1884 16.5252 13.1986C16.5258 13.2097 16.5176 13.2209 16.5049 13.2266C16.4938 13.2316 16.4931 13.2317 16.4828 13.2282ZM14.8692 12.8828C14.8583 12.8825 14.8432 12.8926 14.8345 12.8977C14.814 12.9025 14.79 12.9152 14.7701 12.9016C14.7506 12.8956 14.7245 12.9004 14.7216 12.9244C14.7266 12.9451 14.7556 12.9569 14.7731 12.9433C14.7861 12.9262 14.8217 12.9162 14.8256 12.9453C14.8111 12.9672 14.8128 12.9963 14.8009 13.0196C14.7989 13.0341 14.7929 13.0479 14.785 13.0602C14.7703 13.0617 14.7548 13.06 14.7424 13.0691C14.7225 13.0702 14.7023 13.0801 14.6908 13.0969C14.6781 13.1152 14.6658 13.1338 14.6621 13.1563C14.6655 13.1793 14.6918 13.1859 14.7117 13.1871C14.7328 13.1929 14.754 13.2005 14.7751 13.2069C14.8095 13.2146 14.8417 13.227 14.8762 13.2346C14.9264 13.2498 14.9792 13.2567 15.0298 13.2703C15.0351 13.2721 15.0401 13.2736 15.0456 13.2743C15.0666 13.2786 15.0776 13.2558 15.0793 13.2386C15.0898 13.2018 15.0977 13.1644 15.1081 13.1276C15.1152 13.1128 15.1238 13.0795 15.0952 13.087C15.0789 13.0968 15.065 13.1115 15.0446 13.1127C15.0169 13.1144 15.0327 13.1427 15.0437 13.1544C15.0461 13.173 15.0402 13.1952 15.0278 13.2099C15.0113 13.2203 14.9906 13.2081 14.9733 13.2039C14.9551 13.2042 14.9186 13.1949 14.9356 13.1702C14.9417 13.1519 14.9422 13.1319 14.9495 13.1137C14.9588 13.0942 14.9601 13.073 14.9644 13.0523C14.9529 13.0276 14.9333 13.0604 14.9178 13.0632C14.9071 13.0706 14.8669 13.0738 14.8881 13.0929C14.9063 13.1068 14.8923 13.1309 14.8891 13.1484C14.8879 13.1728 14.8625 13.1787 14.8425 13.1732C14.8226 13.1722 14.7949 13.1574 14.8118 13.1355C14.8156 13.1173 14.822 13.0994 14.8256 13.081L14.8474 13.0156C14.8509 12.996 14.8579 12.9773 14.8672 12.9601C14.8678 12.9384 14.8824 12.9197 14.8821 12.8977C14.8806 12.8869 14.8758 12.883 14.8692 12.8828ZM14.7553 13.1127C14.7579 13.1123 14.7597 13.1127 14.7622 13.1137C14.7701 13.1171 14.7704 13.1235 14.7622 13.1306C14.7586 13.1336 14.7546 13.1366 14.7533 13.1365C14.7385 13.1352 14.7341 13.133 14.7335 13.1276C14.7329 13.1228 14.7344 13.1214 14.7444 13.1167C14.7493 13.1143 14.7527 13.1132 14.7553 13.1127ZM14.7224 13.2719C14.7067 13.2572 14.7092 13.2464 14.7325 13.229C14.7424 13.2216 14.7485 13.2224 14.7598 13.2328C14.7774 13.2488 14.7781 13.2589 14.7626 13.2726C14.755 13.2794 14.7516 13.2808 14.7427 13.2809C14.7334 13.281 14.7308 13.2798 14.7224 13.2719ZM14.8191 13.3011C14.8155 13.3002 14.8121 13.2986 14.8091 13.2964C14.8061 13.2942 14.8037 13.2914 14.8018 13.2881C14.8 13.2849 14.7988 13.2813 14.7984 13.2776C14.798 13.2739 14.7983 13.2702 14.7994 13.2666C14.8035 13.2528 14.8058 13.2515 14.826 13.2513C14.8487 13.2511 14.8531 13.2548 14.8533 13.2748C14.8534 13.286 14.8526 13.2886 14.847 13.2938C14.8404 13.3 14.8278 13.3032 14.8191 13.3011ZM17.645 13.3036C17.6378 13.2977 17.6364 13.2949 17.6363 13.2873C17.6362 13.2743 17.6437 13.2648 17.66 13.2574C17.6816 13.2476 17.6904 13.2489 17.6985 13.2633C17.7094 13.2824 17.7089 13.2901 17.6959 13.303C17.6887 13.3101 17.6874 13.3105 17.671 13.3107C17.6549 13.3108 17.6531 13.3103 17.645 13.3036ZM14.9476 13.3401C14.936 13.337 14.93 13.3284 14.9299 13.3145C14.9298 13.3039 14.9305 13.3023 14.9379 13.2965C14.9427 13.2927 14.9503 13.2895 14.9563 13.2887C14.9647 13.2875 14.9678 13.2883 14.9747 13.293C14.9921 13.3053 14.9958 13.3175 14.9857 13.3292C14.9749 13.3418 14.9647 13.3447 14.9476 13.3401ZM15.6427 13.3712C15.6401 13.368 15.6345 13.3661 15.6339 13.3621C15.6349 13.3445 15.6358 13.3267 15.6414 13.3098C15.6444 13.2932 15.6417 13.2759 15.6475 13.2598C15.6535 13.2304 15.6534 13.2001 15.6603 13.1708C15.6606 13.1558 15.662 13.1408 15.6664 13.1263C15.6714 13.1034 15.6668 13.0795 15.6736 13.0569C15.6728 13.0483 15.6826 13.0257 15.6912 13.0391C15.7037 13.0574 15.7201 13.0722 15.7363 13.0872C15.7501 13.0952 15.7374 13.107 15.7278 13.1109C15.7146 13.1161 15.7114 13.1306 15.7124 13.1434C15.7105 13.1565 15.7053 13.1689 15.7047 13.1824C15.7019 13.2021 15.7025 13.2221 15.6999 13.2419C15.6941 13.2612 15.6963 13.2818 15.6944 13.3017C15.6947 13.3144 15.6887 13.3258 15.6895 13.3385C15.688 13.3514 15.6874 13.3669 15.6766 13.3757C15.6662 13.381 15.6511 13.3801 15.6427 13.3712H15.6427ZM16.5846 13.0604C16.5693 13.072 16.5556 13.0856 16.542 13.0991C16.5232 13.1133 16.5574 13.1216 16.5618 13.1337C16.5668 13.1523 16.5665 13.1721 16.5677 13.1912C16.5734 13.2087 16.5759 13.2273 16.5747 13.2457C16.573 13.2655 16.5473 13.2613 16.536 13.2725C16.5204 13.2791 16.5142 13.2944 16.5023 13.3052C16.4945 13.3205 16.4924 13.3393 16.4914 13.3567C16.4925 13.3709 16.4818 13.3868 16.4914 13.3993C16.4926 13.4011 16.4941 13.4035 16.4954 13.4053C16.4986 13.4099 16.5062 13.4062 16.5112 13.4073C16.5272 13.4064 16.5438 13.4088 16.5588 13.4023C16.5972 13.3957 16.6359 13.3951 16.6747 13.3934C16.6985 13.3942 16.7214 13.3859 16.7451 13.3865C16.7637 13.3906 16.7721 13.3704 16.7719 13.3557C16.7613 13.335 16.7704 13.3104 16.762 13.2893C16.7545 13.268 16.7574 13.2441 16.754 13.222C16.7536 13.2046 16.7315 13.1981 16.7203 13.211C16.7095 13.222 16.692 13.2242 16.6837 13.2378C16.6743 13.2569 16.7036 13.2569 16.7084 13.2715C16.714 13.2862 16.7122 13.3026 16.7134 13.3181C16.717 13.3369 16.6966 13.3379 16.6837 13.3399C16.6666 13.3463 16.6428 13.3505 16.6331 13.33C16.6271 13.3148 16.6279 13.2985 16.6262 13.2824C16.6258 13.2541 16.619 13.2263 16.6173 13.1982C16.6156 13.1634 16.6096 13.1288 16.6074 13.0941C16.607 13.0797 16.6051 13.0561 16.5846 13.0604V13.0604ZM16.5647 13.322L16.5747 13.323L16.5756 13.3349L16.5766 13.3468L16.5638 13.3508C16.5595 13.352 16.5552 13.353 16.5509 13.3538C16.5488 13.3525 16.5468 13.3512 16.5449 13.3498C16.538 13.3448 16.5397 13.3376 16.5489 13.328C16.554 13.3226 16.5565 13.3215 16.5647 13.322H16.5647ZM15.6145 13.0277C15.6024 13.032 15.5871 13.0497 15.5748 13.0496C15.5469 13.0515 15.5508 13.0787 15.5709 13.0882C15.5735 13.0964 15.571 13.1068 15.5719 13.1159C15.5758 13.141 15.56 13.1611 15.5629 13.1863C15.5615 13.2139 15.5532 13.2408 15.552 13.2686C15.5442 13.2972 15.5441 13.3267 15.5392 13.3558C15.5359 13.3819 15.517 13.3727 15.5005 13.3657C15.5004 13.3544 15.4997 13.3433 15.4995 13.332C15.5064 13.3061 15.4855 13.2985 15.4648 13.2953C15.4431 13.2974 15.4324 13.2787 15.4371 13.2596C15.4464 13.2485 15.4699 13.2516 15.4847 13.2497C15.5158 13.2562 15.5145 13.2145 15.4985 13.2002C15.4876 13.18 15.4605 13.1714 15.4529 13.1506C15.456 13.1232 15.4377 13.0957 15.4153 13.0823C15.3808 13.0798 15.3547 13.1096 15.342 13.1387C15.3276 13.1429 15.3133 13.1472 15.2993 13.1526C15.2768 13.1582 15.2448 13.1972 15.2755 13.2121C15.2928 13.2168 15.3453 13.2288 15.3221 13.2527C15.3091 13.2751 15.284 13.2755 15.2617 13.2696C15.2387 13.2696 15.2132 13.2584 15.2141 13.2319C15.2094 13.2081 15.2102 13.1825 15.1992 13.1605C15.1945 13.1339 15.1643 13.1402 15.1626 13.1645C15.1393 13.1814 15.1424 13.2088 15.1586 13.2289C15.1687 13.252 15.1587 13.279 15.1487 13.3003C15.1426 13.328 15.112 13.329 15.0902 13.3379C15.0795 13.3421 15.0386 13.3355 15.0536 13.3587C15.0774 13.3672 15.106 13.3748 15.1309 13.3687C15.157 13.3654 15.1796 13.3476 15.1923 13.3251C15.2098 13.3073 15.2399 13.3166 15.2627 13.3161C15.2872 13.3161 15.3122 13.3333 15.336 13.3221C15.3429 13.3042 15.3748 13.2746 15.3846 13.3052C15.3829 13.3326 15.4071 13.3473 15.4321 13.3439C15.4595 13.3423 15.4494 13.3633 15.449 13.3796C15.4508 13.4092 15.4699 13.4247 15.4946 13.437C15.503 13.4393 15.5118 13.4385 15.5203 13.437C15.5441 13.4296 15.5696 13.419 15.5768 13.3924C15.5864 13.3709 15.5867 13.3464 15.5937 13.3241C15.5993 13.2882 15.6065 13.2524 15.6075 13.2161C15.6163 13.1831 15.6138 13.1483 15.6204 13.115C15.6246 13.0902 15.6277 13.0654 15.6303 13.0406C15.6274 13.0274 15.6217 13.0252 15.6145 13.0277ZM15.3994 13.1595C15.4042 13.1601 15.4069 13.166 15.4074 13.1764C15.4079 13.1879 15.4139 13.1973 15.4212 13.1992C15.427 13.2006 15.4265 13.2068 15.4202 13.2111C15.4166 13.2136 15.4101 13.2151 15.3984 13.215C15.3801 13.215 15.3687 13.2102 15.3588 13.2002L15.3529 13.1942L15.3618 13.1883C15.368 13.1834 15.374 13.1781 15.3796 13.1724C15.3886 13.1632 15.3946 13.159 15.3994 13.1595ZM17.4934 12.9098C17.4755 12.9106 17.4574 12.9135 17.4409 12.9177C17.4079 12.9156 17.3914 12.9503 17.4231 12.9673C17.4422 13.0159 17.4719 12.9572 17.5024 12.9613C17.548 12.9702 17.5518 13.0194 17.5589 13.0564C17.5614 13.0931 17.572 13.1288 17.5826 13.1635C17.6132 13.1974 17.5598 13.2187 17.5371 13.1922C17.5177 13.1711 17.4762 13.1453 17.4528 13.1744C17.4242 13.1865 17.423 13.2248 17.3993 13.2358C17.361 13.2475 17.3561 13.2003 17.3359 13.1803C17.3173 13.1542 17.2816 13.1519 17.2526 13.1427C17.239 13.1151 17.2461 13.0683 17.2179 13.0495C17.1943 13.0592 17.1509 13.1035 17.1872 13.1238C17.2227 13.1543 17.1718 13.1683 17.1555 13.1892C17.1323 13.2151 17.1286 13.2506 17.1248 13.2834C17.0849 13.3055 17.0771 13.2584 17.0723 13.2289C17.0692 13.1936 17.0394 13.204 17.0188 13.217C16.9885 13.2292 16.9735 13.2579 16.9524 13.2804C16.9498 13.301 16.9535 13.3234 16.9533 13.3448C16.9602 13.3706 16.9915 13.3585 17.0108 13.3567C17.0419 13.3437 17.0546 13.3766 17.0297 13.3954C17.0128 13.4168 16.9593 13.4056 16.9642 13.44C16.9815 13.442 16.9995 13.4413 17.0168 13.44C17.0513 13.4305 17.0885 13.4061 17.0921 13.3676C17.0966 13.3341 17.145 13.3402 17.1714 13.3329C17.2044 13.3234 17.2441 13.321 17.2516 13.3627C17.2741 13.3863 17.3229 13.4129 17.3478 13.3805C17.373 13.3651 17.3851 13.3381 17.3834 13.3092C17.3783 13.2843 17.4237 13.2834 17.435 13.2973C17.4515 13.3245 17.5032 13.3164 17.5281 13.3012C17.5546 13.2817 17.5604 13.2472 17.5985 13.2467C17.655 13.2298 17.7137 13.22 17.7689 13.1992C17.8137 13.1894 17.7623 13.1612 17.7511 13.1446C17.7171 13.1278 17.6874 13.1967 17.649 13.1625C17.6194 13.1398 17.6214 13.0966 17.6104 13.0634C17.6029 13.0203 17.6048 12.9707 17.5737 12.9365C17.5524 12.9139 17.5234 12.9084 17.4934 12.9098H17.4934ZM17.2774 13.2101C17.2814 13.21 17.2859 13.2119 17.2933 13.216C17.3072 13.2237 17.3171 13.2364 17.317 13.2467C17.317 13.2535 17.3153 13.2539 17.3052 13.2586C17.2989 13.2615 17.2918 13.2646 17.2893 13.2646C17.2836 13.2645 17.2695 13.2532 17.2695 13.2487C17.2695 13.2468 17.2676 13.2396 17.2655 13.2338C17.2618 13.2237 17.2624 13.2238 17.2675 13.217C17.2708 13.2126 17.2734 13.2102 17.2774 13.2101ZM17.4845 13.221C17.4963 13.2202 17.5034 13.2239 17.5083 13.2329C17.5141 13.2433 17.5102 13.2513 17.4954 13.2576C17.489 13.2604 17.4825 13.2627 17.4816 13.2626C17.4806 13.2625 17.4753 13.2593 17.4697 13.2556C17.4611 13.25 17.4599 13.2473 17.4598 13.2408C17.4597 13.2308 17.4708 13.2219 17.4845 13.221H17.4845ZM17.2011 13.2239C17.2046 13.2234 17.2077 13.2252 17.212 13.2289C17.2177 13.2338 17.2195 13.2377 17.2209 13.2477C17.2219 13.2547 17.2218 13.2636 17.2209 13.2675C17.2194 13.2747 17.2192 13.2744 17.2031 13.2745C17.1828 13.2747 17.1809 13.2724 17.1813 13.2537C17.1815 13.2417 17.1816 13.2385 17.1882 13.2319C17.1933 13.2267 17.1976 13.2245 17.2011 13.2239ZM17.0267 13.2695C17.033 13.271 17.039 13.2758 17.0406 13.2834C17.0426 13.2935 17.0408 13.298 17.0326 13.3022C17.0256 13.3058 17.0093 13.307 17.0049 13.3042C17.0034 13.3033 17.0004 13.3009 16.9989 13.2983C16.9968 13.2944 16.9972 13.2926 16.9999 13.2903C17.0018 13.2888 17.0039 13.2865 17.0039 13.2854C17.0039 13.2842 17.006 13.2802 17.0088 13.2765C17.0135 13.2703 17.0204 13.268 17.0267 13.2695ZM17.32 13.3072C17.3257 13.3071 17.3304 13.3091 17.3339 13.3121C17.3398 13.3173 17.3396 13.3248 17.3329 13.33C17.3286 13.3333 17.3053 13.333 17.2972 13.33C17.2937 13.3286 17.2923 13.3268 17.2923 13.323C17.2922 13.3186 17.2935 13.3158 17.3012 13.3121C17.3077 13.309 17.3144 13.3072 17.32 13.3072H17.32ZM16.7755 13.46C16.7724 13.458 16.7679 13.4563 16.7725 13.453C16.7779 13.4434 16.7889 13.4401 16.7986 13.4365C16.816 13.429 16.831 13.4162 16.8422 13.401C16.8438 13.3905 16.8556 13.3847 16.8556 13.3737C16.8557 13.3586 16.8566 13.3432 16.8529 13.3285C16.8488 13.315 16.8386 13.3046 16.8267 13.2976C16.8185 13.2912 16.8053 13.2894 16.8023 13.2781C16.8006 13.2672 16.8103 13.259 16.8137 13.2493C16.8208 13.2359 16.8268 13.2219 16.8344 13.2088C16.8426 13.1997 16.8553 13.2083 16.8595 13.2172C16.8655 13.226 16.8708 13.2354 16.8738 13.2456C16.8834 13.2561 16.8919 13.2685 16.8953 13.2825C16.9 13.2923 16.9075 13.3016 16.9071 13.3131C16.9071 13.3263 16.9145 13.3381 16.914 13.3513C16.9145 13.3691 16.9145 13.3877 16.908 13.4044C16.9035 13.4138 16.8946 13.4193 16.8887 13.4277C16.8786 13.437 16.8675 13.446 16.8545 13.451C16.8453 13.4539 16.84 13.4645 16.8285 13.4619C16.8122 13.4622 16.7956 13.4645 16.7794 13.4618C16.7805 13.4635 16.7745 13.4589 16.7755 13.46V13.46ZM16.5583 13.4743C16.5505 13.4663 16.5489 13.463 16.5488 13.4552C16.5487 13.4474 16.5502 13.4443 16.5577 13.4366C16.5716 13.4226 16.5784 13.4223 16.6024 13.4344C16.6254 13.446 16.6331 13.4471 16.6352 13.4388C16.6372 13.4309 16.6504 13.4237 16.6629 13.4236C16.6708 13.4235 16.6753 13.4251 16.6817 13.4301C16.6896 13.4363 16.69 13.4372 16.6902 13.4516C16.6904 13.4663 16.6902 13.4668 16.681 13.4749C16.6722 13.4827 16.6708 13.4832 16.6599 13.4821C16.646 13.4807 16.6377 13.4743 16.6355 13.4634C16.6338 13.4555 16.631 13.4536 16.629 13.459C16.6283 13.4607 16.6249 13.4628 16.6214 13.4637C16.6149 13.4654 16.604 13.4722 16.5962 13.4796C16.5933 13.4824 16.5881 13.4837 16.5798 13.4837C16.5685 13.4838 16.5669 13.4832 16.5582 13.4743H16.5583ZM15.9297 13.192C15.9086 13.1922 15.8859 13.21 15.8831 13.2307C15.8879 13.2545 15.9078 13.2779 15.895 13.303C15.9038 13.3351 15.8709 13.3473 15.8484 13.3288C15.8349 13.298 15.828 13.2642 15.8078 13.2366C15.7823 13.2294 15.7712 13.2701 15.7533 13.2842C15.7622 13.3081 15.7881 13.3296 15.791 13.3595C15.7971 13.3885 15.7795 13.4207 15.7543 13.4358C15.7325 13.4566 15.7027 13.4492 15.676 13.4536C15.6435 13.4726 15.6998 13.4796 15.7147 13.4804C15.7479 13.4838 15.7824 13.4794 15.8068 13.4546C15.8312 13.443 15.8293 13.4008 15.8583 13.3962C15.9087 13.3939 15.9586 13.4039 16.009 13.4051C16.0359 13.4115 16.0776 13.4019 16.0962 13.4219C16.0963 13.4571 16.126 13.4787 16.1547 13.4923C16.1705 13.4967 16.1871 13.4771 16.2032 13.4735C16.2338 13.4637 16.2245 13.4258 16.2429 13.411C16.2952 13.4082 16.348 13.4088 16.4004 13.4081C16.4104 13.4083 16.4134 13.3941 16.4203 13.3882C16.4191 13.368 16.4184 13.3479 16.4153 13.3278C16.4052 13.3022 16.4169 13.2693 16.3985 13.2475C16.3721 13.2403 16.3497 13.2644 16.3231 13.2663C16.2938 13.2794 16.269 13.3066 16.2676 13.3397C16.2502 13.3681 16.2224 13.3346 16.232 13.3109C16.2309 13.3006 16.2342 13.2886 16.231 13.2792C16.2149 13.2599 16.1867 13.2662 16.1646 13.2634C16.1323 13.2647 16.1007 13.2577 16.0684 13.2584C16.0401 13.2563 16.0107 13.2609 15.9832 13.2535C15.9505 13.2525 15.955 13.2205 15.9495 13.198C15.9437 13.1937 15.9367 13.1919 15.9297 13.192ZM15.9931 13.309C16.004 13.3092 16.0143 13.3106 16.0248 13.3119C16.0385 13.3142 16.0531 13.3072 16.0665 13.3119C16.0974 13.3172 16.1284 13.316 16.1596 13.3189C16.1679 13.3187 16.1738 13.3247 16.1794 13.3298V13.3952C16.1785 13.4033 16.1819 13.4141 16.1745 13.42C16.1721 13.4216 16.1695 13.4234 16.1666 13.4239C16.158 13.4217 16.1489 13.416 16.1448 13.4081C16.1434 13.3967 16.1453 13.3857 16.1457 13.3744C16.1455 13.3714 16.147 13.3668 16.1457 13.3645C16.139 13.3597 16.1313 13.3566 16.123 13.3565C16.096 13.3556 16.0696 13.3536 16.0427 13.3526C16.0203 13.3511 15.9972 13.3545 15.9753 13.3486C15.9668 13.3455 15.9557 13.3466 15.9505 13.3377C15.9431 13.3291 15.9538 13.3188 15.9614 13.3149C15.9715 13.3103 15.9823 13.3087 15.9931 13.309L15.9931 13.309ZM16.3509 13.3169C16.3559 13.3168 16.3575 13.3185 16.3598 13.3278L16.3638 13.3436C16.3649 13.3474 16.3631 13.3486 16.3578 13.3506C16.3421 13.3565 16.3266 13.3559 16.3212 13.3486C16.3187 13.3453 16.3216 13.3348 16.3261 13.3308C16.3353 13.3226 16.3454 13.3169 16.3509 13.3169Z" fill="#C09300"/>
<path d="M16.5997 9.17293C16.6208 9.1742 16.5711 9.05978 16.5711 9.05978C16.627 9.11699 16.8384 9.13066 16.8384 9.13066C16.7115 9.07465 16.5848 8.65192 16.5997 8.31498C16.6134 7.9768 16.5512 7.84373 16.5015 7.79401C16.438 7.73058 16.2341 7.67464 16.0998 7.66716C16.024 7.66344 16.0364 7.72436 16.0364 7.72436C15.8959 7.68831 15.7554 7.67464 15.692 7.71691C15.6323 7.75671 15.6199 7.95564 15.6634 7.92082C15.7691 7.83628 15.8611 7.91337 15.9245 8.00537C15.9804 8.0862 15.9767 8.31498 15.8959 8.58228C15.8114 8.86329 15.5801 9.14429 15.5801 9.14429C15.7057 9.14429 15.8822 9.03241 15.8822 9.03241L15.84 9.20772C15.973 9.14429 16.0787 9.04608 16.0787 9.04608L16.2055 9.17911C16.2478 9.12317 16.3324 9.04608 16.3324 9.04608C16.3324 9.04608 16.438 9.15799 16.5997 9.17293Z" fill="white" stroke="#C09300" stroke-width="0.0386259"/>
<path d="M16.0867 8.36373C16.0867 8.36373 16.0158 8.88471 15.8828 9.03268M16.1987 8.3501C16.1987 8.3501 16.1713 8.87725 16.0793 9.04638M16.2979 8.37134C16.2979 8.37134 16.2979 8.94826 16.3327 9.04647M16.4235 8.39989C16.4235 8.39989 16.4521 8.8848 16.5715 9.06011" stroke="#C09300" stroke-width="0.0402749"/>
<path d="M15.9586 8.11149C15.9524 8.06551 15.9412 8.02942 15.925 8.0058C15.8616 7.9138 15.7696 7.83671 15.6639 7.92125C15.6639 7.92125 15.7 7.80934 15.7771 7.80563C15.8368 7.80189 15.9723 7.85037 16.0917 8.05429C16.0917 8.05429 16.0034 8.0344 15.9823 8.05305C15.9424 8.08787 15.9586 8.11149 15.9586 8.11149ZM15.6529 7.78327C15.6616 7.75467 15.6753 7.72857 15.6927 7.71737C15.7561 7.6751 15.8966 7.68877 16.0371 7.72482C16.0371 7.72482 16.0247 7.6639 16.1005 7.66765C16.2348 7.6751 16.4387 7.73107 16.5021 7.79446C16.517 7.81064 16.5344 7.83426 16.5493 7.87029H16.5469C16.5158 7.82678 16.4275 7.82928 16.4064 7.83176C16.3728 7.8355 16.3517 7.83423 16.3069 7.84543C16.2858 7.85041 16.2534 7.85662 16.236 7.87029C16.2224 7.88148 16.2111 7.92252 16.19 7.92252C16.1564 7.92252 16.1589 7.91383 16.1502 7.90387C16.139 7.8902 16.1328 7.87029 16.1216 7.87153C16.0868 7.87777 16.0308 7.85041 15.96 7.79446C15.8892 7.73852 15.8618 7.72482 15.7698 7.73104C15.679 7.73849 15.6504 7.78949 15.6504 7.78949L15.6529 7.78327Z" fill="#C09300" stroke="#C09300" stroke-width="0.0112262"/>
<path d="M16.1721 7.86512C16.1927 7.86512 16.2094 7.84842 16.2094 7.82782C16.2094 7.80722 16.1927 7.79053 16.1721 7.79053C16.1515 7.79053 16.1348 7.80722 16.1348 7.82782C16.1348 7.84842 16.1515 7.86512 16.1721 7.86512Z" fill="white"/>
<path d="M16.2087 11.5239C17.2439 10.7277 17.1551 9.56142 17.1551 9.56142C17.1278 9.56688 17.1019 9.56961 17.0746 9.56961C16.8574 9.56961 16.3395 9.44539 16.2187 9.2876C16.0893 9.43041 15.56 9.56961 15.3443 9.56961C15.317 9.56961 15.2896 9.56688 15.2637 9.56142C15.2637 9.56142 15.1736 10.7277 16.2087 11.5239H16.2087Z" fill="white" stroke="#C09300" stroke-width="0.0364721"/>
<path d="M17.0734 9.64653L17.0466 9.64737C16.8498 9.64737 16.3927 9.5464 16.2165 9.39502C16.0319 9.53485 15.5673 9.64737 15.3737 9.64737C15.3646 9.64737 15.3556 9.64626 15.3467 9.64463C15.3463 9.68873 15.3486 9.73444 15.3513 9.77603C15.3616 9.93145 15.3888 10.0874 15.4302 10.2375C15.5605 10.7099 15.8271 11.1113 16.2094 11.4158C16.5921 11.111 16.859 10.7092 16.9896 10.2365C17.0311 10.0865 17.0584 9.93051 17.0688 9.77511C17.0712 9.7316 17.0736 9.67833 17.0734 9.64653Z" stroke="#C09300" stroke-width="0.0290505"/>
<mask id="mask0_25_2492" style="mask-type:luminance" maskUnits="userSpaceOnUse" x="15" y="9" width="3" height="3">
<path d="M17.0628 9.65308L17.0362 9.65391C16.8415 9.65391 16.3894 9.55407 16.215 9.4043C16.0324 9.54268 15.5728 9.65391 15.3812 9.65391C15.3722 9.65383 15.3633 9.65292 15.3545 9.65119L15.359 9.78115C15.3691 9.93496 15.3961 10.0892 15.437 10.2377C15.5659 10.705 15.8298 11.1022 16.2079 11.4035C16.5864 11.1019 16.8507 10.7044 16.9798 10.2367C17.0212 10.0876 17.0474 9.93464 17.0581 9.78021C17.0607 9.73784 17.0622 9.69541 17.0627 9.65296L17.0628 9.65308Z" fill="white"/>
</mask>
<g mask="url(#mask0_25_2492)">
<path d="M15.3408 9.38428H15.9199V11.4237H15.3408V9.38428Z" fill="#C09300"/>
<path fill-rule="evenodd" clip-rule="evenodd" d="M15.9199 9.38428H16.499V11.4237H15.9199V9.38428Z" fill="white"/>
<path fill-rule="evenodd" clip-rule="evenodd" d="M16.498 9.38428H17.0771V11.4237H16.498V9.38428Z" fill="#C09300"/>
</g>
</g>
<rect x="2" y="1.19043" width="28.6003" height="19.0237" stroke="#A8B7D4" stroke-width="0.0645027" stroke-linejoin="round"/>
</g>
<defs>
<filter id="filter0_dd_25_2492" x="0.414815" y="0.64055" width="31.771" height="22.1943" filterUnits="userSpaceOnUse" color-interpolation-filters="sRGB">
<feFlood flood-opacity="0" result="BackgroundImageFix"/>
<feColorMatrix in="SourceAlpha" type="matrix" values="0 0 0 0 0 0 0 0 0 0 0 0 0 0 0 0 0 0 127 0" result="hardAlpha"/>
<feOffset dy="1.03531"/>
<feGaussianBlur stdDeviation="0.776479"/>
<feComposite in2="hardAlpha" operator="out"/>
<feColorMatrix type="matrix" values="0 0 0 0 0.258824 0 0 0 0 0.278431 0 0 0 0 0.298039 0 0 0 0.08 0"/>
<feBlend mode="normal" in2="BackgroundImageFix" result="effect1_dropShadow_25_2492"/>
<feColorMatrix in="SourceAlpha" type="matrix" values="0 0 0 0 0 0 0 0 0 0 0 0 0 0 0 0 0 0 127 0" result="hardAlpha"/>
<feOffset/>
<feGaussianBlur stdDeviation="0.0647066"/>
<feComposite in2="hardAlpha" operator="out"/>
<feColorMatrix type="matrix" values="0 0 0 0 0.258824 0 0 0 0 0.278431 0 0 0 0 0.298039 0 0 0 0.32 0"/>
<feBlend mode="normal" in2="effect1_dropShadow_25_2492" result="effect2_dropShadow_25_2492"/>
<feBlend mode="normal" in="SourceGraphic" in2="effect2_dropShadow_25_2492" result="shape"/>
</filter>
<clipPath id="clip0_25_2492">
<rect x="2" y="1.19043" width="28.6003" height="19.0237" fill="white"/>
</clipPath>
</defs>
</svg>
