<svg width="512" height="512" viewBox="0 0 512 512" fill="none" xmlns="http://www.w3.org/2000/svg">
<path d="M496 432.011H272C263.168 432.011 256 424.843 256 416.011C256 407.179 256 104.843 256 96.0112C256 87.1792 263.168 80.0112 272 80.0112H496C504.832 80.0112 512 87.1792 512 96.0112V416.011C512 424.843 504.832 432.011 496 432.011Z" fill="#ECEFF1"/>
<path d="M336 176.011H272C263.168 176.011 256 168.843 256 160.011C256 151.179 263.168 144.011 272 144.011H336C344.832 144.011 352 151.179 352 160.011C352 168.843 344.832 176.011 336 176.011Z" fill="#388E3C"/>
<path d="M336 240.011H272C263.168 240.011 256 232.843 256 224.011C256 215.179 263.168 208.011 272 208.011H336C344.832 208.011 352 215.179 352 224.011C352 232.843 344.832 240.011 336 240.011Z" fill="#388E3C"/>
<path d="M336 304.011H272C263.168 304.011 256 296.843 256 288.011C256 279.179 263.168 272.011 272 272.011H336C344.832 272.011 352 279.179 352 288.011C352 296.843 344.832 304.011 336 304.011Z" fill="#388E3C"/>
<path d="M336 368.011H272C263.168 368.011 256 360.843 256 352.011C256 343.179 263.168 336.011 272 336.011H336C344.832 336.011 352 343.179 352 352.011C352 360.843 344.832 368.011 336 368.011Z" fill="#388E3C"/>
<path d="M432 176.011H400C391.168 176.011 384 168.843 384 160.011C384 151.179 391.168 144.011 400 144.011H432C440.832 144.011 448 151.179 448 160.011C448 168.843 440.832 176.011 432 176.011Z" fill="#388E3C"/>
<path d="M432 240.011H400C391.168 240.011 384 232.843 384 224.011C384 215.179 391.168 208.011 400 208.011H432C440.832 208.011 448 215.179 448 224.011C448 232.843 440.832 240.011 432 240.011Z" fill="#388E3C"/>
<path d="M432 304.011H400C391.168 304.011 384 296.843 384 288.011C384 279.179 391.168 272.011 400 272.011H432C440.832 272.011 448 279.179 448 288.011C448 296.843 440.832 304.011 432 304.011Z" fill="#388E3C"/>
<path d="M432 368.011H400C391.168 368.011 384 360.843 384 352.011C384 343.179 391.168 336.011 400 336.011H432C440.832 336.011 448 343.179 448 352.011C448 360.843 440.832 368.011 432 368.011Z" fill="#388E3C"/>
<path d="M282.208 19.6908C278.56 16.6508 273.664 15.3388 269.056 16.2988L13.056 64.2988C5.472 65.7068 0 72.2988 0 80.0108V432.011C0 439.691 5.472 446.315 13.056 447.723L269.056 495.723C270.016 495.915 271.008 496.011 272 496.011C275.712 496.011 279.328 494.731 282.208 492.331C285.888 489.291 288 484.747 288 480.011V32.0108C288 27.2428 285.888 22.7308 282.208 19.6908Z" fill="#2E7D32"/>
<path d="M220.032 309.483L169.44 251.659L220.608 185.867C226.048 178.891 224.768 168.843 217.824 163.403C210.88 157.963 200.832 159.243 195.36 166.187L147.968 227.115L108.032 181.483C102.176 174.763 92.0639 174.155 85.4719 179.979C78.8159 185.803 78.1439 195.915 83.9679 202.539L127.968 252.843L83.3599 310.187C77.9199 317.163 79.1999 327.211 86.1439 332.651C89.0879 334.923 92.5759 336.011 95.9999 336.011C100.768 336.011 105.472 333.899 108.64 329.835L149.44 277.355L195.968 330.507C199.136 334.155 203.552 336.011 208 336.011C211.744 336.011 215.488 334.699 218.528 332.043C225.184 326.219 225.856 316.107 220.032 309.483Z" fill="#FAFAFA"/>
</svg>
