<svg width="81" height="80" viewBox="0 0 81 80" fill="none" xmlns="http://www.w3.org/2000/svg">
<g clip-path="url(#clip0_451_4533)">
<path d="M68 2.8125H13C6.1073 2.8125 0.5 8.4198 0.5 15.3125V59.0625C0.5 65.9552 6.1073 71.5625 13 71.5625H55.6562C57.3823 71.5625 58.7812 70.1636 58.7812 68.4375C58.7812 66.7114 57.3823 65.3125 55.6562 65.3125H44.1462L36.9612 55.9912L59.7303 27.0306L75.0581 43.9716C75.9248 44.9304 77.2926 45.2557 78.4987 44.7913C79.7041 44.3262 80.5 43.1671 80.5 41.875V15.3125C80.5 8.4198 74.8927 2.8125 68 2.8125ZM74.25 33.7634L61.88 20.0909C61.2623 19.408 60.3737 19.0308 59.4545 19.0643C58.5347 19.0967 57.6753 19.5325 57.1058 20.2563L33.025 50.885L24.85 40.2795C24.2585 39.5123 23.3442 39.0625 22.375 39.0625C22.3744 39.0625 22.3738 39.0625 22.3732 39.0625C21.4039 39.0631 20.489 39.5135 19.8982 40.282L13.0208 49.2224C11.9685 50.5908 12.2242 52.5525 13.592 53.6047C14.9604 54.6576 16.9221 54.4012 17.975 53.0334L22.3774 47.3096L36.255 65.3125H13C9.55396 65.3125 6.75 62.5085 6.75 59.0625V15.3125C6.75 11.8665 9.55396 9.0625 13 9.0625H68C71.446 9.0625 74.25 11.8665 74.25 15.3125V33.7634Z" fill="black"/>
<path d="M22.375 14.0625C17.2053 14.0625 13 18.2678 13 23.4375C13 28.6072 17.2053 32.8125 22.375 32.8125C27.5447 32.8125 31.75 28.6072 31.75 23.4375C31.75 18.2678 27.5447 14.0625 22.375 14.0625ZM22.375 26.5625C20.652 26.5625 19.25 25.1605 19.25 23.4375C19.25 21.7145 20.652 20.3125 22.375 20.3125C24.098 20.3125 25.5 21.7145 25.5 23.4375C25.5 25.1605 24.098 26.5625 22.375 26.5625Z" fill="black"/>
<path d="M73.6996 50.1471C73.6905 50.1379 73.6813 50.1282 73.6721 50.119C72.1951 48.6316 70.2304 47.8125 68.1393 47.8125C66.0543 47.8125 64.0951 48.6267 62.6199 50.1056L56.5866 56.0565C55.3579 57.2681 55.3445 59.2468 56.5567 60.4755C57.7682 61.7041 59.747 61.7181 60.9756 60.506L65.0143 56.5228V74.0625C65.0143 75.7886 66.4132 77.1875 68.1393 77.1875C69.8654 77.1875 71.2643 75.7886 71.2643 74.0625V56.618L75.1297 60.611C75.7425 61.2445 76.5585 61.5625 77.3751 61.5625C78.1582 61.5625 78.9419 61.2701 79.5486 60.683C80.7888 59.4824 80.8206 57.5043 79.62 56.264L73.6996 50.1471Z" fill="black"/>
</g>
<defs>
<clipPath id="clip0_451_4533">
<rect width="80" height="80" fill="white" transform="translate(0.5)"/>
</clipPath>
</defs>
</svg>
