<svg width="49" height="56" viewBox="0 0 49 56" fill="none" xmlns="http://www.w3.org/2000/svg">
<path d="M38.5 0H43.5C46.2614 0 48.5 2.23858 48.5 5V10H38.5V0Z" fill="#24698F"/>
<path d="M0.5 46H10.5V56H5.5C2.73858 56 0.5 53.7614 0.5 51V46Z" fill="#24698F"/>
<rect x="0.5" width="32.5" height="10" fill="#24698F"/>
<path d="M16 15.5H45.5V25.5H21C18.2386 25.5 16 23.2614 16 20.5V15.5Z" fill="#24698F"/>
<path d="M0.5 30.5H28C30.7614 30.5 33 32.7386 33 35.5V40.5H5.5C2.73858 40.5 0.5 38.2614 0.5 35.5V30.5Z" fill="#24698F"/>
<rect x="16" y="46" width="29.5" height="10" fill="#24698F"/>
<path d="M5.5 40.5C2.73858 40.5 0.5 38.2614 0.5 35.5L0.499998 0L10.5 -4.37114e-07L10.5 40.5L5.5 40.5Z" fill="#24698F"/>
<rect x="38.5" y="56" width="40.5" height="10" transform="rotate(-90 38.5 56)" fill="#24698F"/>
</svg>
