<svg width="384" height="512" viewBox="0 0 384 512" fill="none" xmlns="http://www.w3.org/2000/svg">
<path fill-rule="evenodd" clip-rule="evenodd" d="M67.1984 0H238.377L383.456 151.221V445.346C383.456 482.191 353.647 512 316.929 512H67.1984C30.3529 512 0.543945 482.191 0.543945 445.346V66.6544C0.543298 29.809 30.3523 0 67.1984 0Z" fill="#E5252A"/>
<path opacity="0.302" fill-rule="evenodd" clip-rule="evenodd" d="M238.248 0V150.069H383.456L238.248 0Z" fill="white"/>
<path d="M74.6182 382.017V288.496H114.406C124.258 288.496 132.062 291.182 137.947 296.684C143.832 302.057 146.775 309.349 146.775 318.433C146.775 327.516 143.832 334.809 137.947 340.182C132.062 345.683 124.258 348.37 114.406 348.37H98.5422V382.017H74.6182ZM98.5422 328.028H111.72C115.302 328.028 118.116 327.26 120.036 325.47C121.955 323.807 122.979 321.504 122.979 318.433C122.979 315.363 121.955 313.06 120.036 311.397C118.117 309.606 115.302 308.838 111.72 308.838H98.5422V328.028ZM156.625 382.017V288.496H189.76C196.285 288.496 202.426 289.391 208.183 291.31C213.94 293.229 219.186 295.916 223.791 299.626C228.397 303.208 232.107 308.07 234.794 314.211C237.352 320.352 238.76 327.389 238.76 335.32C238.76 343.125 237.353 350.161 234.794 356.302C232.107 362.443 228.397 367.304 223.791 370.886C219.185 374.596 213.94 377.283 208.183 379.202C202.426 381.121 196.285 382.017 189.76 382.017H156.625ZM180.037 361.675H186.946C190.656 361.675 194.11 361.292 197.309 360.396C200.379 359.501 203.322 358.093 206.136 356.174C208.823 354.255 210.998 351.568 212.533 347.986C214.068 344.404 214.836 340.182 214.836 335.32C214.836 330.331 214.068 326.109 212.533 322.527C210.998 318.945 208.823 316.258 206.136 314.339C203.322 312.42 200.38 311.013 197.309 310.117C194.11 309.222 190.656 308.838 186.946 308.838H180.037V361.675ZM250.786 382.017V288.496H317.313V308.838H274.71V323.806H308.741V344.02H274.71V382.017H250.786Z" fill="white"/>
</svg>
