<svg width="25" height="15" viewBox="0 0 25 15" fill="none" xmlns="http://www.w3.org/2000/svg">
<path fill-rule="evenodd" clip-rule="evenodd" d="M7.7 7.38474C7.7 4.6672 9.8516 2.46166 12.5 2.46166C15.1496 2.46166 17.3 4.6672 17.3 7.38474C17.3 10.1023 15.1496 12.3078 12.5 12.3078C9.8516 12.3078 7.7 10.1023 7.7 7.38474ZM0.5 7.38474L4.01599 3.68997C8.69839 -1.23064 16.3016 -1.23064 20.984 3.68997L24.5 7.38474L20.984 11.0795C16.3016 16.0001 8.69839 16.0001 4.01599 11.0795L0.5 7.38474ZM13.2032 5.04997C12.9872 4.96135 12.7484 4.9232 12.5 4.9232C11.1752 4.9232 10.1 6.02597 10.1 7.38474C10.1 8.74351 11.1752 9.84628 12.5 9.84628C13.8248 9.84628 14.9 8.74351 14.9 7.38474C14.9 7.1312 14.8628 6.88627 14.7764 6.66473C14.5988 7.09181 14.1824 7.38474 13.7 7.38474C13.0376 7.38474 12.5 6.83336 12.5 6.15397C12.5 5.6592 12.7856 5.23212 13.2032 5.04997Z" fill="#FEFEFE"/>
</svg>
