<svg width="352" height="69" viewBox="0 0 352 69" fill="none" xmlns="http://www.w3.org/2000/svg">
<path d="M145.969 30V9.32H150.629V30H145.969ZM145.889 5.7V1.1H150.709V5.7H145.889ZM154.801 30L165.181 1.08H170.461L180.841 30H175.961L173.381 22.74H162.301L159.701 30H154.801ZM163.461 18.42H172.161L167.821 5.8L163.461 18.42ZM195.485 30.4C194.045 30.4 192.665 30.2267 191.345 29.88C190.025 29.52 188.819 28.9933 187.725 28.3C186.645 27.5933 185.752 26.72 185.045 25.68C184.339 24.6267 183.905 23.4 183.745 22H188.785C188.999 22.9733 189.419 23.7933 190.045 24.46C190.685 25.1267 191.492 25.6333 192.465 25.98C193.439 26.3267 194.525 26.5 195.725 26.5C196.792 26.5 197.785 26.34 198.705 26.02C199.625 25.7 200.372 25.2267 200.945 24.6C201.519 23.96 201.805 23.1733 201.805 22.24C201.805 21.1867 201.432 20.3667 200.685 19.78C199.952 19.18 198.899 18.7067 197.525 18.36L191.865 17.02C190.399 16.6867 189.119 16.2 188.025 15.56C186.945 14.92 186.105 14.08 185.505 13.04C184.905 11.9867 184.605 10.7 184.605 9.18C184.605 7.44667 185.079 5.94667 186.025 4.68C186.985 3.41333 188.285 2.44 189.925 1.76C191.565 1.06666 193.412 0.719998 195.465 0.719998C197.812 0.719998 199.792 1.11333 201.405 1.9C203.019 2.67333 204.245 3.71333 205.085 5.02C205.925 6.32667 206.352 7.76 206.365 9.32H201.445C201.339 8.16 200.999 7.24667 200.425 6.58C199.852 5.9 199.125 5.40667 198.245 5.1C197.365 4.79333 196.392 4.64 195.325 4.64C193.432 4.64 192.025 5.04667 191.105 5.86C190.185 6.67333 189.725 7.62667 189.725 8.72C189.725 9.74667 190.065 10.56 190.745 11.16C191.425 11.76 192.465 12.2267 193.865 12.56L199.245 13.82C201.045 14.1933 202.492 14.7667 203.585 15.54C204.679 16.3133 205.472 17.2333 205.965 18.3C206.472 19.3533 206.725 20.52 206.725 21.8C206.725 23.48 206.245 24.9667 205.285 26.26C204.339 27.5533 203.025 28.5667 201.345 29.3C199.665 30.0333 197.712 30.4 195.485 30.4Z" fill="#2B2B2B"/>
<path d="M3.056 63V39.864H6.016V63H3.056ZM10.8225 63V59.224H14.3425V63H10.8225ZM27.271 63.32C26.1403 63.32 25.0683 63.1867 24.055 62.92C23.0417 62.6427 22.119 62.232 21.287 61.688C20.4657 61.144 19.783 60.472 19.239 59.672C18.7057 58.8613 18.3697 57.9227 18.231 56.856H21.335C21.527 57.7307 21.9057 58.4667 22.471 59.064C23.047 59.6613 23.7563 60.1093 24.599 60.408C25.4523 60.7067 26.3857 60.856 27.399 60.856C28.3803 60.856 29.2817 60.7013 30.103 60.392C30.935 60.0827 31.6017 59.6347 32.103 59.048C32.6043 58.4507 32.855 57.736 32.855 56.904C32.855 55.9867 32.5563 55.2507 31.959 54.696C31.3617 54.1307 30.439 53.6773 29.191 53.336L24.423 52.104C23.3457 51.8373 22.391 51.464 21.559 50.984C20.7377 50.4933 20.0923 49.8533 19.623 49.064C19.1537 48.264 18.919 47.272 18.919 46.088C18.919 44.776 19.2817 43.6347 20.007 42.664C20.7323 41.6827 21.7137 40.9253 22.951 40.392C24.199 39.848 25.607 39.576 27.175 39.576C28.9883 39.576 30.5137 39.8907 31.751 40.52C32.999 41.1493 33.943 41.976 34.583 43C35.223 44.024 35.543 45.1173 35.543 46.28H32.503C32.407 45.224 32.0977 44.392 31.575 43.784C31.0523 43.1653 30.4017 42.7227 29.623 42.456C28.8443 42.1787 27.9963 42.04 27.079 42.04C25.4257 42.04 24.1723 42.4187 23.319 43.176C22.4763 43.9227 22.055 44.8133 22.055 45.848C22.055 46.7973 22.359 47.544 22.967 48.088C23.575 48.632 24.471 49.0533 25.655 49.352L30.295 50.552C31.671 50.872 32.7643 51.336 33.575 51.944C34.3963 52.552 34.983 53.2613 35.335 54.072C35.6977 54.872 35.879 55.7413 35.879 56.68C35.879 57.96 35.5217 59.1013 34.807 60.104C34.0923 61.1067 33.0897 61.896 31.799 62.472C30.519 63.0373 29.0097 63.32 27.271 63.32ZM38.9475 63V59.224H42.4675V63H38.9475ZM47.556 63V39.864H50.516V63H47.556ZM55.3225 63V59.224H58.8425V63H55.3225ZM71.771 63.32C70.6403 63.32 69.5683 63.1867 68.555 62.92C67.5417 62.6427 66.619 62.232 65.787 61.688C64.9657 61.144 64.283 60.472 63.739 59.672C63.2057 58.8613 62.8697 57.9227 62.731 56.856H65.835C66.027 57.7307 66.4057 58.4667 66.971 59.064C67.547 59.6613 68.2563 60.1093 69.099 60.408C69.9523 60.7067 70.8857 60.856 71.899 60.856C72.8803 60.856 73.7817 60.7013 74.603 60.392C75.435 60.0827 76.1017 59.6347 76.603 59.048C77.1043 58.4507 77.355 57.736 77.355 56.904C77.355 55.9867 77.0563 55.2507 76.459 54.696C75.8617 54.1307 74.939 53.6773 73.691 53.336L68.923 52.104C67.8457 51.8373 66.891 51.464 66.059 50.984C65.2377 50.4933 64.5923 49.8533 64.123 49.064C63.6537 48.264 63.419 47.272 63.419 46.088C63.419 44.776 63.7817 43.6347 64.507 42.664C65.2323 41.6827 66.2137 40.9253 67.451 40.392C68.699 39.848 70.107 39.576 71.675 39.576C73.4883 39.576 75.0137 39.8907 76.251 40.52C77.499 41.1493 78.443 41.976 79.083 43C79.723 44.024 80.043 45.1173 80.043 46.28H77.003C76.907 45.224 76.5977 44.392 76.075 43.784C75.5523 43.1653 74.9017 42.7227 74.123 42.456C73.3443 42.1787 72.4963 42.04 71.579 42.04C69.9257 42.04 68.6723 42.4187 67.819 43.176C66.9763 43.9227 66.555 44.8133 66.555 45.848C66.555 46.7973 66.859 47.544 67.467 48.088C68.075 48.632 68.971 49.0533 70.155 49.352L74.795 50.552C76.171 50.872 77.2643 51.336 78.075 51.944C78.8963 52.552 79.483 53.2613 79.835 54.072C80.1977 54.872 80.379 55.7413 80.379 56.68C80.379 57.96 80.0217 59.1013 79.307 60.104C78.5923 61.1067 77.5897 61.896 76.299 62.472C75.019 63.0373 73.5097 63.32 71.771 63.32ZM91.4218 63L99.7898 39.864H103.134L111.502 63H108.478L106.206 56.664H96.7178L94.4298 63H91.4218ZM97.5018 53.944H105.39L101.454 42.76L97.5018 53.944ZM115.261 63V46.456H118.077V49.64C118.354 48.8507 118.743 48.2 119.245 47.688C119.746 47.1653 120.317 46.776 120.957 46.52C121.607 46.264 122.279 46.136 122.973 46.136C123.218 46.136 123.458 46.152 123.693 46.184C123.927 46.216 124.109 46.2693 124.237 46.344V49.208C124.077 49.1333 123.869 49.0853 123.613 49.064C123.367 49.032 123.159 49.016 122.989 49.016C122.327 48.9733 121.709 49.016 121.133 49.144C120.557 49.2613 120.05 49.4693 119.613 49.768C119.175 50.0667 118.829 50.4613 118.573 50.952C118.327 51.432 118.205 52.0187 118.205 52.712V63H115.261ZM134.167 63.32C132.673 63.32 131.351 62.9947 130.199 62.344C129.057 61.6933 128.161 60.7333 127.511 59.464C126.871 58.1947 126.551 56.6373 126.551 54.792C126.551 53.064 126.844 51.5547 127.431 50.264C128.028 48.9627 128.892 47.9493 130.023 47.224C131.164 46.4987 132.545 46.136 134.167 46.136C135.351 46.136 136.412 46.3653 137.351 46.824C138.3 47.272 139.079 47.912 139.687 48.744C140.295 49.576 140.668 50.5573 140.807 51.688H138.183C138.087 51.112 137.863 50.584 137.511 50.104C137.169 49.624 136.716 49.24 136.151 48.952C135.596 48.664 134.94 48.52 134.183 48.52C132.764 48.52 131.607 49.032 130.711 50.056C129.825 51.08 129.383 52.648 129.383 54.76C129.383 56.6693 129.788 58.2 130.599 59.352C131.42 60.4933 132.625 61.064 134.215 61.064C134.972 61.064 135.633 60.92 136.199 60.632C136.764 60.3333 137.217 59.944 137.559 59.464C137.9 58.9733 138.119 58.4507 138.215 57.896H140.791C140.652 59.0053 140.273 59.9653 139.655 60.776C139.047 61.5867 138.268 62.216 137.319 62.664C136.38 63.1013 135.329 63.32 134.167 63.32ZM144.729 63V39.224H147.609V48.888C147.887 48.4293 148.26 48.0027 148.729 47.608C149.199 47.2027 149.769 46.8773 150.441 46.632C151.113 46.376 151.892 46.248 152.777 46.248C153.855 46.248 154.831 46.4507 155.705 46.856C156.58 47.2507 157.273 47.816 157.785 48.552C158.297 49.288 158.553 50.1627 158.553 51.176V63H155.593V51.768C155.593 50.776 155.252 50.0133 154.569 49.48C153.897 48.936 153.017 48.664 151.929 48.664C151.193 48.664 150.5 48.7867 149.849 49.032C149.199 49.2667 148.671 49.6293 148.265 50.12C147.871 50.6 147.673 51.2133 147.673 51.96V63H144.729ZM163.247 63V46.456H166.111V63H163.247ZM163.167 42.952V39.88H166.191V42.952H163.167ZM175.361 63L169.377 46.456H172.161L176.561 59.288H176.833L181.249 46.456H184.017L178.065 63H175.361ZM187.309 63V46.456H190.173V63H187.309ZM187.229 42.952V39.88H190.253V42.952H187.229ZM195.323 63V46.456H198.187V48.856C198.454 48.3973 198.822 47.9653 199.291 47.56C199.771 47.1547 200.347 46.8293 201.019 46.584C201.702 46.3387 202.486 46.216 203.371 46.216C204.416 46.216 205.376 46.424 206.251 46.84C207.136 47.256 207.84 47.9067 208.363 48.792C208.896 49.6667 209.163 50.7973 209.163 52.184V63H206.203V52.472C206.203 51.1813 205.862 50.2267 205.179 49.608C204.507 48.9787 203.632 48.664 202.555 48.664C201.808 48.664 201.11 48.7867 200.459 49.032C199.808 49.2667 199.28 49.6293 198.875 50.12C198.47 50.6 198.267 51.208 198.267 51.944V63H195.323ZM220.784 68.472C218.192 68.472 216.17 68.0933 214.72 67.336C213.269 66.5893 212.544 65.5173 212.544 64.12C212.544 63.5227 212.682 63.016 212.96 62.6C213.237 62.1733 213.568 61.8213 213.952 61.544C214.336 61.2667 214.693 61.048 215.024 60.888C215.354 60.7173 215.573 60.5947 215.68 60.52C215.488 60.4133 215.258 60.28 214.992 60.12C214.725 59.96 214.485 59.7467 214.272 59.48C214.069 59.2133 213.968 58.8667 213.968 58.44C213.968 57.9173 214.213 57.4373 214.704 57C215.194 56.5627 215.925 56.2373 216.896 56.024C215.925 55.5333 215.168 54.8827 214.624 54.072C214.08 53.2613 213.808 52.3813 213.808 51.432C213.808 50.3653 214.096 49.4373 214.672 48.648C215.248 47.8587 216.074 47.256 217.152 46.84C218.229 46.4133 219.514 46.2 221.008 46.2C222.085 46.2 222.986 46.328 223.712 46.584C224.448 46.8293 225.13 47.1813 225.76 47.64C225.93 47.5653 226.202 47.4533 226.576 47.304C226.949 47.144 227.354 46.9733 227.792 46.792C228.24 46.6107 228.656 46.44 229.04 46.28C229.434 46.1093 229.749 45.9813 229.984 45.896L229.968 48.632L227.072 49.176C227.242 49.5173 227.376 49.8907 227.472 50.296C227.568 50.7013 227.616 51.08 227.616 51.432C227.616 52.4027 227.36 53.2827 226.848 54.072C226.346 54.8613 225.584 55.4907 224.56 55.96C223.536 56.4293 222.256 56.664 220.72 56.664C220.592 56.664 220.426 56.664 220.224 56.664C220.032 56.6533 219.866 56.6427 219.728 56.632C218.597 56.664 217.818 56.792 217.392 57.016C216.976 57.2293 216.768 57.4693 216.768 57.736C216.768 58.0453 217.008 58.2587 217.488 58.376C217.968 58.4933 218.778 58.5947 219.92 58.68C220.336 58.7013 220.848 58.728 221.456 58.76C222.074 58.792 222.762 58.8347 223.52 58.888C225.248 58.9947 226.581 59.4373 227.52 60.216C228.458 60.9947 228.928 62.0453 228.928 63.368C228.928 64.872 228.256 66.0987 226.912 67.048C225.578 67.9973 223.536 68.472 220.784 68.472ZM221.312 66.568C222.837 66.568 224.005 66.3387 224.816 65.88C225.637 65.4213 226.048 64.728 226.048 63.8C226.048 63.1387 225.797 62.6 225.296 62.184C224.794 61.7573 224.037 61.512 223.024 61.448L218.384 61.144C217.968 61.1227 217.536 61.2293 217.088 61.464C216.64 61.688 216.261 62.0027 215.952 62.408C215.642 62.8133 215.488 63.272 215.488 63.784C215.488 64.6587 215.962 65.3413 216.912 65.832C217.861 66.3227 219.328 66.568 221.312 66.568ZM220.816 54.76C222 54.76 222.954 54.4827 223.68 53.928C224.416 53.3733 224.784 52.552 224.784 51.464C224.784 50.344 224.416 49.4907 223.68 48.904C222.954 48.3173 222 48.024 220.816 48.024C219.6 48.024 218.618 48.3227 217.872 48.92C217.136 49.5067 216.768 50.3547 216.768 51.464C216.768 52.5093 217.12 53.32 217.824 53.896C218.538 54.472 219.536 54.76 220.816 54.76ZM249.927 63.32C248.797 63.32 247.725 63.1867 246.711 62.92C245.698 62.6427 244.775 62.232 243.943 61.688C243.122 61.144 242.439 60.472 241.895 59.672C241.362 58.8613 241.026 57.9227 240.887 56.856H243.991C244.183 57.7307 244.562 58.4667 245.127 59.064C245.703 59.6613 246.413 60.1093 247.255 60.408C248.109 60.7067 249.042 60.856 250.055 60.856C251.037 60.856 251.938 60.7013 252.759 60.392C253.591 60.0827 254.258 59.6347 254.759 59.048C255.261 58.4507 255.511 57.736 255.511 56.904C255.511 55.9867 255.213 55.2507 254.615 54.696C254.018 54.1307 253.095 53.6773 251.847 53.336L247.079 52.104C246.002 51.8373 245.047 51.464 244.215 50.984C243.394 50.4933 242.749 49.8533 242.279 49.064C241.81 48.264 241.575 47.272 241.575 46.088C241.575 44.776 241.938 43.6347 242.663 42.664C243.389 41.6827 244.37 40.9253 245.607 40.392C246.855 39.848 248.263 39.576 249.831 39.576C251.645 39.576 253.17 39.8907 254.407 40.52C255.655 41.1493 256.599 41.976 257.239 43C257.879 44.024 258.199 45.1173 258.199 46.28H255.159C255.063 45.224 254.754 44.392 254.231 43.784C253.709 43.1653 253.058 42.7227 252.279 42.456C251.501 42.1787 250.653 42.04 249.735 42.04C248.082 42.04 246.829 42.4187 245.975 43.176C245.133 43.9227 244.711 44.8133 244.711 45.848C244.711 46.7973 245.015 47.544 245.623 48.088C246.231 48.632 247.127 49.0533 248.311 49.352L252.951 50.552C254.327 50.872 255.421 51.336 256.231 51.944C257.053 52.552 257.639 53.2613 257.991 54.072C258.354 54.872 258.535 55.7413 258.535 56.68C258.535 57.96 258.178 59.1013 257.463 60.104C256.749 61.1067 255.746 61.896 254.455 62.472C253.175 63.0373 251.666 63.32 249.927 63.32ZM264.752 68.28C263.782 68.28 263.115 68.2107 262.752 68.072C262.39 67.9333 262.208 67.864 262.208 67.864V65.944L263.904 65.976C264.512 65.9973 265.019 65.9547 265.424 65.848C265.83 65.7413 266.155 65.5973 266.4 65.416C266.646 65.2347 266.832 65.032 266.96 64.808C267.099 64.584 267.211 64.3707 267.296 64.168L267.872 62.6L261.408 46.456H264.4L269.28 59.224L274.128 46.456H277.024L270.064 64.248C269.627 65.2933 269.142 66.1093 268.608 66.696C268.086 67.2827 267.499 67.6933 266.848 67.928C266.208 68.1627 265.51 68.28 264.752 68.28ZM285.869 63.32C284.717 63.32 283.645 63.144 282.653 62.792C281.671 62.4293 280.855 61.8693 280.205 61.112C279.554 60.344 279.149 59.368 278.989 58.184H281.677C281.815 58.8347 282.082 59.3787 282.477 59.816C282.871 60.2427 283.357 60.568 283.933 60.792C284.519 61.0053 285.159 61.112 285.853 61.112C286.973 61.112 287.874 60.904 288.557 60.488C289.239 60.072 289.581 59.432 289.581 58.568C289.581 57.96 289.399 57.4747 289.037 57.112C288.685 56.7387 288.13 56.4667 287.373 56.296L283.949 55.448C282.615 55.128 281.549 54.6267 280.749 53.944C279.959 53.2613 279.559 52.3067 279.549 51.08C279.549 50.1093 279.783 49.256 280.253 48.52C280.722 47.784 281.421 47.2027 282.349 46.776C283.287 46.3493 284.455 46.136 285.853 46.136C287.655 46.136 289.106 46.5413 290.205 47.352C291.303 48.152 291.879 49.3307 291.933 50.888H289.309C289.202 50.0987 288.85 49.4747 288.253 49.016C287.655 48.5467 286.845 48.312 285.821 48.312C284.775 48.312 283.917 48.5253 283.245 48.952C282.583 49.368 282.253 50.0187 282.253 50.904C282.253 51.4907 282.487 51.9547 282.957 52.296C283.437 52.6267 284.13 52.904 285.037 53.128L288.365 53.96C289.122 54.1627 289.751 54.4293 290.253 54.76C290.754 55.0907 291.149 55.4587 291.437 55.864C291.725 56.2693 291.927 56.696 292.045 57.144C292.173 57.5813 292.237 58.0027 292.237 58.408C292.237 59.4213 291.986 60.296 291.485 61.032C290.983 61.7573 290.258 62.3227 289.309 62.728C288.359 63.1227 287.213 63.32 285.869 63.32ZM301.825 63.08C300.683 63.08 299.798 62.9253 299.169 62.616C298.539 62.3067 298.097 61.848 297.841 61.24C297.595 60.632 297.473 59.8853 297.473 59V48.616H294.785V46.456H297.553L298.273 41.64H300.449V46.44H304.177V48.616H300.449V58.904C300.449 59.4907 300.507 59.9227 300.625 60.2C300.753 60.4667 300.961 60.6373 301.249 60.712C301.537 60.7867 301.942 60.824 302.465 60.824H304.273V62.808C304.07 62.8827 303.761 62.9467 303.345 63C302.939 63.0533 302.433 63.08 301.825 63.08ZM314.753 63.32C313.217 63.32 311.862 62.984 310.689 62.312C309.515 61.64 308.598 60.6747 307.937 59.416C307.275 58.1573 306.945 56.648 306.945 54.888C306.945 53.1493 307.243 51.624 307.841 50.312C308.438 49 309.302 47.976 310.433 47.24C311.574 46.504 312.945 46.136 314.545 46.136C316.102 46.136 317.419 46.472 318.497 47.144C319.574 47.816 320.39 48.7653 320.945 49.992C321.51 51.208 321.793 52.6533 321.793 54.328V55.416H309.937C309.937 56.4613 310.107 57.4107 310.449 58.264C310.801 59.1067 311.329 59.7787 312.033 60.28C312.737 60.7813 313.627 61.032 314.705 61.032C315.761 61.032 316.667 60.7867 317.425 60.296C318.193 59.8053 318.683 59.096 318.897 58.168H321.681C321.488 59.288 321.041 60.232 320.337 61C319.643 61.768 318.806 62.3493 317.825 62.744C316.854 63.128 315.83 63.32 314.753 63.32ZM309.953 53.416H318.945C318.945 52.4667 318.785 51.6133 318.465 50.856C318.145 50.088 317.654 49.4853 316.993 49.048C316.342 48.6 315.521 48.376 314.529 48.376C313.494 48.376 312.635 48.6267 311.953 49.128C311.27 49.6187 310.763 50.2533 310.433 51.032C310.102 51.8 309.942 52.5947 309.953 53.416ZM325.886 63V46.456H328.734V48.856C329.192 48.1307 329.822 47.496 330.622 46.952C331.422 46.408 332.462 46.136 333.742 46.136C334.339 46.136 334.947 46.2373 335.566 46.44C336.195 46.6427 336.771 46.9467 337.294 47.352C337.816 47.7573 338.222 48.2533 338.51 48.84C339.022 48.0293 339.715 47.3787 340.59 46.888C341.464 46.3867 342.451 46.136 343.55 46.136C344.126 46.136 344.728 46.2267 345.358 46.408C345.987 46.5787 346.568 46.888 347.102 47.336C347.646 47.7733 348.088 48.3867 348.43 49.176C348.771 49.9547 348.942 50.9573 348.942 52.184V63H345.966V52.472C345.966 51.4693 345.806 50.696 345.486 50.152C345.166 49.5973 344.744 49.208 344.222 48.984C343.71 48.76 343.16 48.648 342.574 48.648C342.062 48.648 341.518 48.7493 340.942 48.952C340.366 49.1547 339.875 49.496 339.47 49.976C339.064 50.456 338.862 51.112 338.862 51.944V63H335.918V51.608C335.918 50.9573 335.742 50.4133 335.39 49.976C335.048 49.5387 334.616 49.208 334.094 48.984C333.582 48.76 333.07 48.648 332.558 48.648C331.992 48.648 331.422 48.76 330.846 48.984C330.28 49.208 329.8 49.5653 329.406 50.056C329.022 50.536 328.83 51.1653 328.83 51.944V63H325.886Z" fill="#2B2B2B"/>
</svg>
