<svg width="368" height="464" viewBox="0 0 368 464" fill="none" xmlns="http://www.w3.org/2000/svg">
<path d="M24 272V16C24 11.7565 25.6857 7.68687 28.6863 4.68629C31.6869 1.68571 35.7565 0 40 0H248L344 96V272" fill="#D6D6D4"/>
<path d="M344 432V448C344 452.243 342.314 456.313 339.314 459.314C336.313 462.314 332.243 464 328 464H40C35.7565 464 31.6869 462.314 28.6863 459.314C25.6857 456.313 24 452.243 24 448V432" fill="#D6D6D4"/>
<path d="M248 0V96H344" fill="#44546C"/>
<path d="M352 272H16C7.16344 272 0 279.163 0 288V416C0 424.837 7.16344 432 16 432H352C360.837 432 368 424.837 368 416V288C368 279.163 360.837 272 352 272Z" fill="#F35244"/>
<path d="M296 184H72C69.8783 184 67.8434 183.157 66.3431 181.657C64.8428 180.157 64 178.122 64 176C64 173.878 64.8428 171.843 66.3431 170.343C67.8434 168.843 69.8783 168 72 168H296C298.122 168 300.157 168.843 301.657 170.343C303.157 171.843 304 173.878 304 176C304 178.122 303.157 180.157 301.657 181.657C300.157 183.157 298.122 184 296 184Z" fill="#44546C"/>
<path d="M296 232H72C69.8783 232 67.8434 231.157 66.3431 229.657C64.8428 228.157 64 226.122 64 224C64 221.878 64.8428 219.843 66.3431 218.343C67.8434 216.843 69.8783 216 72 216H296C298.122 216 300.157 216.843 301.657 218.343C303.157 219.843 304 221.878 304 224C304 226.122 303.157 228.157 301.657 229.657C300.157 231.157 298.122 232 296 232Z" fill="#44546C"/>
<path d="M77.8402 314.88C77.8288 313.302 78.4313 311.782 79.5202 310.64C80.099 310.045 80.7979 309.58 81.5704 309.277C82.343 308.973 83.1713 308.838 84.0002 308.88H110.64C114.814 308.826 118.978 309.283 123.04 310.24C126.685 311.031 130.12 312.585 133.12 314.8C136.049 317.025 138.384 319.938 139.92 323.28C141.633 327.436 142.451 331.907 142.32 336.4C142.648 342.448 141.112 348.452 137.92 353.6C135.186 357.625 131.315 360.745 126.8 362.56L142.8 391.04C143.215 391.714 143.436 392.489 143.44 393.28C143.398 394.634 143.013 395.955 142.32 397.12C141.49 398.369 140.494 399.499 139.36 400.48C138.118 401.465 136.745 402.273 135.28 402.88C133.852 403.441 132.334 403.739 130.8 403.76C129.523 403.745 128.266 403.444 127.12 402.88C125.914 402.256 124.955 401.24 124.4 400L106.4 365.76H97.9202V396.8C97.927 397.797 97.6329 398.774 97.0763 399.602C96.5197 400.429 95.7265 401.07 94.8002 401.44C92.6547 402.47 90.3 402.99 87.9202 402.96C85.5395 402.999 83.1828 402.479 81.0402 401.44C80.0924 401.093 79.2757 400.46 78.7026 399.629C78.1295 398.798 77.8282 397.809 77.8402 396.8V314.88ZM97.9202 326.4V350.4H110.64C113.704 350.568 116.731 349.662 119.2 347.84C120.342 346.568 121.202 345.071 121.726 343.444C122.25 341.817 122.425 340.099 122.24 338.4C122.434 336.713 122.263 335.004 121.739 333.389C121.214 331.774 120.348 330.291 119.2 329.04C116.75 327.18 113.709 326.27 110.64 326.48L97.9202 326.4Z" fill="#D6D6D4"/>
<path d="M159.44 402.96C158.005 402.938 156.579 402.723 155.2 402.32C153.706 401.95 152.277 401.357 150.96 400.56C149.756 399.93 148.694 399.058 147.84 398C147.062 397.085 146.637 395.922 146.64 394.72C146.599 394.241 146.599 393.759 146.64 393.28L170.64 314.8C171.009 313.653 171.632 312.603 172.463 311.731C173.295 310.858 174.312 310.184 175.44 309.76C177.968 308.672 180.688 308.101 183.44 308.08C186.193 308.092 188.915 308.664 191.44 309.76C192.568 310.184 193.586 310.858 194.417 311.731C195.248 312.603 195.872 313.653 196.24 314.8L220.24 393.28C220.267 393.76 220.267 394.24 220.24 394.72C220.215 395.93 219.761 397.092 218.96 398C218.107 399.058 217.045 399.93 215.84 400.56C214.524 401.357 213.094 401.95 211.6 402.32C210.222 402.723 208.796 402.938 207.36 402.96C205.905 403.013 204.456 402.74 203.12 402.16C202.542 401.864 202.035 401.446 201.635 400.935C201.234 400.424 200.949 399.832 200.8 399.2L196.4 383.2H170.4L166.08 399.2C165.904 399.831 165.599 400.419 165.187 400.928C164.774 401.438 164.261 401.857 163.68 402.16C162.344 402.74 160.896 403.013 159.44 402.96ZM193.36 368L184 333.2L174.56 368H193.36Z" fill="#D6D6D4"/>
<path d="M228.881 314.88C228.87 313.303 229.472 311.782 230.561 310.64C231.137 310.041 231.835 309.574 232.608 309.27C233.382 308.966 234.212 308.833 235.041 308.88H261.681C265.854 308.831 270.018 309.288 274.081 310.24C277.725 311.031 281.161 312.585 284.161 314.8C287.09 317.026 289.425 319.938 290.961 323.28C292.674 327.437 293.491 331.907 293.361 336.4C293.689 342.449 292.153 348.452 288.961 353.6C286.228 357.659 282.32 360.785 277.761 362.56L293.761 391.04C294.175 391.714 294.397 392.489 294.401 393.28C294.388 394.651 293.97 395.986 293.201 397.12C292.396 398.388 291.397 399.522 290.241 400.48C289.015 401.448 287.671 402.254 286.241 402.88C284.811 403.433 283.294 403.731 281.761 403.76C280.484 403.745 279.227 403.445 278.081 402.88C276.874 402.256 275.915 401.241 275.361 400L257.681 365.76H248.961V396.8C248.973 397.81 248.672 398.798 248.099 399.629C247.526 400.46 246.709 401.093 245.761 401.44C243.618 402.479 241.262 403 238.881 402.96C236.501 402.991 234.147 402.471 232.001 401.44C231.075 401.07 230.281 400.43 229.725 399.602C229.168 398.774 228.874 397.798 228.881 396.8V314.88ZM248.961 326.4V350.4H261.681C264.721 350.569 267.723 349.663 270.161 347.84C271.334 346.587 272.221 345.094 272.76 343.464C273.299 341.834 273.476 340.106 273.281 338.4C273.487 336.706 273.313 334.988 272.774 333.369C272.234 331.751 271.342 330.272 270.161 329.04C267.742 327.179 264.726 326.268 261.681 326.48L248.961 326.4Z" fill="#D6D6D4"/>
</svg>
