<svg width="19" height="22" viewBox="0 0 19 22" fill="none" xmlns="http://www.w3.org/2000/svg">
<path d="M18.3214 2.71429H14.25V2.03571C14.25 0.913154 13.3368 0 12.2143 0H6.78571C5.66315 0 4.75 0.913154 4.75 2.03571V2.71429H0.678571C0.30383 2.71429 0 3.01779 0 3.39286C0 3.76792 0.30383 4.07143 0.678571 4.07143H5.42857H13.5714H18.3214C18.6965 4.07143 19 3.76792 19 3.39286C19 3.01779 18.6965 2.71429 18.3214 2.71429Z" fill="#F12C31"/>
<path d="M17.6429 5.42859C17.6429 5.42859 1.37592 5.42859 1.35719 5.42859C0.988993 5.42859 0.661779 5.74738 0.679259 6.13764L1.29355 19.78C1.34756 20.8648 2.24084 21.7143 3.32662 21.7143H15.6734C16.7596 21.7143 17.6528 20.8648 17.7065 19.7767C17.7065 19.7767 18.3192 6.17395 18.3208 6.13772C18.3381 5.75439 18.0258 5.42859 17.6429 5.42859ZM5.95608 17.6422C5.94615 17.6429 5.93621 17.6429 5.92627 17.6429C5.56511 17.6429 5.26459 17.3579 5.24902 16.9935L4.92895 9.52918C4.91271 9.15477 5.20329 8.83802 5.5777 8.82211C5.95177 8.80555 6.26886 9.09646 6.28476 9.47086L6.60483 16.9351C6.62107 17.3096 6.33049 17.6263 5.95608 17.6422ZM10.1786 16.9643C10.1786 17.3394 9.87477 17.6429 9.50003 17.6429C9.12529 17.6429 8.82146 17.3394 8.82146 16.9643V9.50002C8.82146 9.12495 9.12529 8.82145 9.50003 8.82145C9.87477 8.82145 10.1786 9.12495 10.1786 9.50002V16.9643ZM13.7504 16.9935C13.7345 17.3579 13.4343 17.6429 13.0731 17.6429C13.0632 17.6429 13.0533 17.6429 13.0433 17.6422C12.6689 17.6263 12.3787 17.3096 12.3946 16.9351L12.7153 9.47086C12.7319 9.09645 13.0533 8.80686 13.4224 8.82211C13.7968 8.83802 14.087 9.15477 14.0711 9.52918L13.7504 16.9935Z" fill="#F12C31"/>
</svg>
