<svg width="35" height="25" viewBox="0 0 35 25" fill="none" xmlns="http://www.w3.org/2000/svg">
<g filter="url(#filter0_dd_25_2235)">
<g clip-path="url(#clip0_25_2235)">
<rect x="2.41309" y="1.354" width="30.067" height="19.9993" fill="white"/>
<path d="M32.4811 1.354H2.41406V21.3533H32.4811V1.354Z" fill="#B31942"/>
<path d="M2.41406 3.66162H32.4811H2.41406ZM32.4811 6.73844H2.41406H32.4811ZM2.41406 9.81526H32.4811H2.41406ZM32.4811 12.8921H2.41406H32.4811ZM2.41406 15.9689H32.4811H2.41406ZM32.4811 19.0457H2.41406H32.4811Z" fill="#000008"/>
<path d="M2.41406 3.66162H32.4811M32.4811 6.73844H2.41406M2.41406 9.81526H32.4811M32.4811 12.8921H2.41406M2.41406 15.9689H32.4811M32.4811 19.0457H2.41406" stroke="white" stroke-width="1.53841"/>
<path d="M17.6136 1.354H2.41406V12.1229H17.6136V1.354Z" fill="#0A3161"/>
<path d="M3.68095 1.81592L4.04265 2.92912L3.0957 2.24112H4.2662L3.31925 2.92912L3.68095 1.81592Z" fill="white"/>
<path d="M3.68095 3.96924L4.04265 5.08244L3.0957 4.39444H4.2662L3.31925 5.08244L3.68095 3.96924Z" fill="white"/>
<path d="M3.68095 6.12354L4.04265 7.23674L3.0957 6.54874H4.2662L3.31925 7.23674L3.68095 6.12354Z" fill="white"/>
<path d="M3.68095 8.27686L4.04265 9.39006L3.0957 8.70206H4.2662L3.31925 9.39006L3.68095 8.27686Z" fill="white"/>
<path d="M3.68095 10.4312L4.04265 11.5444L3.0957 10.8564H4.2662L3.31925 11.5444L3.68095 10.4312Z" fill="white"/>
<path d="M4.94755 2.89258L5.30925 4.00578L4.3623 3.31778H5.5328L4.58585 4.00578L4.94755 2.89258Z" fill="white"/>
<path d="M4.94755 5.0459L5.30925 6.1591L4.3623 5.4711H5.5328L4.58585 6.1591L4.94755 5.0459Z" fill="white"/>
<path d="M4.94755 7.19971L5.30925 8.31291L4.3623 7.62491H5.5328L4.58585 8.31291L4.94755 7.19971Z" fill="white"/>
<path d="M4.94755 9.35352L5.30925 10.4667L4.3623 9.77872H5.5328L4.58585 10.4667L4.94755 9.35352Z" fill="white"/>
<path d="M6.21513 1.81592L6.57683 2.92912L5.62988 2.24112H6.80037L5.85343 2.92912L6.21513 1.81592Z" fill="white"/>
<path d="M6.21513 3.96924L6.57683 5.08244L5.62988 4.39444H6.80037L5.85343 5.08244L6.21513 3.96924Z" fill="white"/>
<path d="M6.21513 6.12354L6.57683 7.23674L5.62988 6.54874H6.80037L5.85343 7.23674L6.21513 6.12354Z" fill="white"/>
<path d="M6.21513 8.27686L6.57683 9.39006L5.62988 8.70206H6.80037L5.85343 9.39006L6.21513 8.27686Z" fill="white"/>
<path d="M6.21513 10.4312L6.57683 11.5444L5.62988 10.8564H6.80037L5.85343 11.5444L6.21513 10.4312Z" fill="white"/>
<path d="M7.48173 2.89307L7.84343 4.00627L6.89648 3.31827H8.06698L7.12003 4.00627L7.48173 2.89307Z" fill="white"/>
<path d="M7.48173 5.04639L7.84343 6.15959L6.89648 5.47159H8.06698L7.12003 6.15959L7.48173 5.04639Z" fill="white"/>
<path d="M7.48173 7.20068L7.84343 8.31389L6.89648 7.62589H8.06698L7.12003 8.31389L7.48173 7.20068Z" fill="white"/>
<path d="M7.48173 9.354L7.84343 10.4672L6.89648 9.77921H8.06698L7.12003 10.4672L7.48173 9.354Z" fill="white"/>
<path d="M8.74931 1.81543L9.11101 2.92863L8.16406 2.24064H9.33455L8.38761 2.92863L8.74931 1.81543Z" fill="white"/>
<path d="M8.74931 3.96924L9.11101 5.08244L8.16406 4.39444H9.33455L8.38761 5.08244L8.74931 3.96924Z" fill="white"/>
<path d="M8.74931 6.12305L9.11101 7.23625L8.16406 6.54825H9.33455L8.38761 7.23625L8.74931 6.12305Z" fill="white"/>
<path d="M8.74931 8.27686L9.11101 9.39006L8.16406 8.70206H9.33455L8.38761 9.39006L8.74931 8.27686Z" fill="white"/>
<path d="M8.74931 10.4307L9.11101 11.5439L8.16406 10.8559H9.33455L8.38761 11.5439L8.74931 10.4307Z" fill="white"/>
<path d="M10.0149 2.89258L10.3766 4.00578L9.42969 3.31778H10.6002L9.65323 4.00578L10.0149 2.89258Z" fill="white"/>
<path d="M10.0149 5.04639L10.3766 6.15959L9.42969 5.47159H10.6002L9.65323 6.15959L10.0149 5.04639Z" fill="white"/>
<path d="M10.0149 7.2002L10.3766 8.3134L9.42969 7.6254H10.6002L9.65323 8.3134L10.0149 7.2002Z" fill="white"/>
<path d="M10.0149 9.354L10.3766 10.4672L9.42969 9.77921H10.6002L9.65323 10.4672L10.0149 9.354Z" fill="white"/>
<path d="M11.2796 1.81543L11.6413 2.92863L10.6943 2.24064H11.8648L10.9179 2.92863L11.2796 1.81543Z" fill="white"/>
<path d="M11.2796 3.96924L11.6413 5.08244L10.6943 4.39444H11.8648L10.9179 5.08244L11.2796 3.96924Z" fill="white"/>
<path d="M11.2796 6.12305L11.6413 7.23625L10.6943 6.54825H11.8648L10.9179 7.23625L11.2796 6.12305Z" fill="white"/>
<path d="M11.2796 8.27686L11.6413 9.39006L10.6943 8.70206H11.8648L10.9179 9.39006L11.2796 8.27686Z" fill="white"/>
<path d="M11.2796 10.4307L11.6413 11.5439L10.6943 10.8559H11.8648L10.9179 11.5439L11.2796 10.4307Z" fill="white"/>
<path d="M12.5472 2.89258L12.9089 4.00578L11.9619 3.31778H13.1324L12.1855 4.00578L12.5472 2.89258Z" fill="white"/>
<path d="M12.5472 5.04639L12.9089 6.15959L11.9619 5.47159H13.1324L12.1855 6.15959L12.5472 5.04639Z" fill="white"/>
<path d="M12.5472 7.2002L12.9089 8.3134L11.9619 7.6254H13.1324L12.1855 8.3134L12.5472 7.2002Z" fill="white"/>
<path d="M12.5472 9.354L12.9089 10.4672L11.9619 9.77921H13.1324L12.1855 10.4672L12.5472 9.354Z" fill="white"/>
<path d="M13.8138 1.81543L14.1755 2.92863L13.2285 2.24064H14.399L13.4521 2.92863L13.8138 1.81543Z" fill="white"/>
<path d="M13.8138 3.96924L14.1755 5.08244L13.2285 4.39444H14.399L13.4521 5.08244L13.8138 3.96924Z" fill="white"/>
<path d="M13.8138 6.12305L14.1755 7.23625L13.2285 6.54825H14.399L13.4521 7.23625L13.8138 6.12305Z" fill="white"/>
<path d="M13.8138 8.27686L14.1755 9.39006L13.2285 8.70206H14.399L13.4521 9.39006L13.8138 8.27686Z" fill="white"/>
<path d="M13.8138 10.4307L14.1755 11.5439L13.2285 10.8559H14.399L13.4521 11.5439L13.8138 10.4307Z" fill="white"/>
<path d="M15.0813 2.89209L15.443 4.00529L14.4961 3.3173H15.6666L14.7196 4.00529L15.0813 2.89209Z" fill="white"/>
<path d="M15.0813 5.04541L15.443 6.15861L14.4961 5.47062H15.6666L14.7196 6.15861L15.0813 5.04541Z" fill="white"/>
<path d="M15.0813 7.19922L15.443 8.31242L14.4961 7.62442H15.6666L14.7196 8.31242L15.0813 7.19922Z" fill="white"/>
<path d="M15.0813 9.35303L15.443 10.4662L14.4961 9.77823H15.6666L14.7196 10.4662L15.0813 9.35303Z" fill="white"/>
<path d="M16.347 1.81543L16.7087 2.92863L15.7617 2.24064H16.9322L15.9853 2.92863L16.347 1.81543Z" fill="white"/>
<path d="M16.347 3.96924L16.7087 5.08244L15.7617 4.39444H16.9322L15.9853 5.08244L16.347 3.96924Z" fill="white"/>
<path d="M16.347 6.12305L16.7087 7.23625L15.7617 6.54825H16.9322L15.9853 7.23625L16.347 6.12305Z" fill="white"/>
<path d="M16.347 8.27686L16.7087 9.39006L15.7617 8.70206H16.9322L15.9853 9.39006L16.347 8.27686Z" fill="white"/>
<path d="M16.347 10.4307L16.7087 11.5439L15.7617 10.8559H16.9322L15.9853 11.5439L16.347 10.4307Z" fill="white"/>
</g>
<rect x="2.41309" y="1.354" width="30.067" height="19.9993" stroke="#A8B7D4" stroke-width="0.085699" stroke-linejoin="round"/>
</g>
<defs>
<filter id="filter0_dd_25_2235" x="0.306839" y="0.623276" width="34.2789" height="24.2115" filterUnits="userSpaceOnUse" color-interpolation-filters="sRGB">
<feFlood flood-opacity="0" result="BackgroundImageFix"/>
<feColorMatrix in="SourceAlpha" type="matrix" values="0 0 0 0 0 0 0 0 0 0 0 0 0 0 0 0 0 0 127 0" result="hardAlpha"/>
<feOffset dy="1.37552"/>
<feGaussianBlur stdDeviation="1.03164"/>
<feComposite in2="hardAlpha" operator="out"/>
<feColorMatrix type="matrix" values="0 0 0 0 0.258824 0 0 0 0 0.278431 0 0 0 0 0.298039 0 0 0 0.08 0"/>
<feBlend mode="normal" in2="BackgroundImageFix" result="effect1_dropShadow_25_2235"/>
<feColorMatrix in="SourceAlpha" type="matrix" values="0 0 0 0 0 0 0 0 0 0 0 0 0 0 0 0 0 0 127 0" result="hardAlpha"/>
<feOffset/>
<feGaussianBlur stdDeviation="0.08597"/>
<feComposite in2="hardAlpha" operator="out"/>
<feColorMatrix type="matrix" values="0 0 0 0 0.258824 0 0 0 0 0.278431 0 0 0 0 0.298039 0 0 0 0.32 0"/>
<feBlend mode="normal" in2="effect1_dropShadow_25_2235" result="effect2_dropShadow_25_2235"/>
<feBlend mode="normal" in="SourceGraphic" in2="effect2_dropShadow_25_2235" result="shape"/>
</filter>
<clipPath id="clip0_25_2235">
<rect x="2.41309" y="1.354" width="30.067" height="19.9993" fill="white"/>
</clipPath>
</defs>
</svg>
