<svg width="512" height="512" viewBox="0 0 512 512" fill="none" xmlns="http://www.w3.org/2000/svg">
<g clip-path="url(#clip0_386_3337)">
<path d="M256 74.6665H501.333V437.333H256V74.6665Z" fill="white"/>
<path d="M501.333 448H288C282.104 448 277.333 443.229 277.333 437.333C277.333 431.438 282.104 426.667 288 426.667H490.666V85.3333H288C282.104 85.3333 277.333 80.5625 277.333 74.6667C277.333 68.7708 282.104 64 288 64H501.333C507.229 64 512 68.7708 512 74.6667V437.333C512 443.229 507.229 448 501.333 448Z" fill="#015CAB"/>
<path d="M298.667 0L0 55.6522V456.348L298.667 512V0Z" fill="#015CAB"/>
<path opacity="0.2" d="M0 55.6523V60.9857L298.667 5.33333V0L0 55.6523Z" fill="white"/>
<path opacity="0.1" d="M0 456.347L298.667 512V506.667L0 451.014V456.347Z" fill="black"/>
<path d="M288 117.333H458.667V138.667H288V117.333Z" fill="#015CAB"/>
<path d="M288 181.333H458.667V202.667H288V181.333Z" fill="#015CAB"/>
<path d="M288 245.333H458.667V266.667H288V245.333Z" fill="#015CAB"/>
<path d="M288 309.333H458.667V330.667H288V309.333Z" fill="#015CAB"/>
<path d="M288 373.333H458.667V394.667H288V373.333Z" fill="#015CAB"/>
<path d="M501.334 448C507.229 448 512 443.229 512 437.333V277.333L298.667 64V448H501.334Z" fill="url(#paint0_linear_386_3337)"/>
<path d="M169.333 352.667L192.008 354.286L239.225 175.674L205.462 178.086L180.792 270.573C180.792 270.573 168.245 224.927 156.332 181.595L120.294 184.169L96.5417 270.573L74.3685 187.449L41.8359 189.773L83.2721 346.519L109.227 348.374L138.667 245.333C138.667 245.333 155.573 304.508 169.333 352.667Z" fill="white"/>
<path opacity="0.05" d="M298.667 0L0 55.6522V456.348L298.667 512V0Z" fill="url(#paint1_linear_386_3337)"/>
<path d="M501.333 64H298.667V0L0 55.6523V456.348L298.667 512V448H501.333C507.229 448 512 443.229 512 437.333V74.6667C512 68.7708 507.229 64 501.333 64Z" fill="url(#paint2_linear_386_3337)"/>
</g>
<defs>
<linearGradient id="paint0_linear_386_3337" x1="202.667" y1="160" x2="498.219" y2="455.552" gradientUnits="userSpaceOnUse">
<stop stop-opacity="0.1"/>
<stop offset="1" stop-opacity="0"/>
</linearGradient>
<linearGradient id="paint1_linear_386_3337" x1="-2.82743" y1="259.927" x2="296.361" y2="259.927" gradientUnits="userSpaceOnUse">
<stop stop-color="white"/>
<stop offset="1"/>
</linearGradient>
<linearGradient id="paint2_linear_386_3337" x1="-33.344" y1="127.189" x2="534.293" y2="391.872" gradientUnits="userSpaceOnUse">
<stop stop-color="white" stop-opacity="0.2"/>
<stop offset="1" stop-color="white" stop-opacity="0"/>
</linearGradient>
<clipPath id="clip0_386_3337">
<rect width="512" height="512" fill="white"/>
</clipPath>
</defs>
</svg>
