<svg width="512" height="468" viewBox="0 0 512 468" fill="none" xmlns="http://www.w3.org/2000/svg">
<path d="M233.1 44.5L189.2 11.8C178.8 4.2 166.3 0 153.4 0H30C13.4 0 0 13.4 0 30V385C0 401.6 13.4 415 30 415H482C498.6 415 512 401.6 512 385V86.3C512 69.7 498.6 56.3 482 56.3H268.9C256 56.3 243.5 52.2 233.1 44.5Z" fill="#F6C012"/>
<path d="M86 85.2002H446C454.3 85.2002 461 91.9002 461 100.2V300.2C461 308.5 454.3 315.2 446 315.2H86C77.7 315.2 71 308.5 71 300.2V100.2C71 91.9002 77.7 85.2002 86 85.2002Z" fill="#FFEAC5"/>
<path d="M66 105.2H426C434.3 105.2 441 111.9 441 120.2V320.2C441 328.5 434.3 335.2 426 335.2H66C57.7 335.2 51 328.5 51 320.2V120.2C51 111.9 57.7 105.2 66 105.2Z" fill="#FFF7E6"/>
<path d="M30 136H482C498.6 136 512 149.4 512 166V385C512 401.6 498.6 415 482 415H30C13.4 415 0 401.6 0 385V166C0 149.4 13.4 136 30 136Z" fill="#FBD87C"/>
<path d="M226 136H266V156H226V136Z" fill="#EA8000"/>
<path d="M246 156H286V176H246V156Z" fill="#FF9E1F"/>
<path d="M226 176H266V196H226V176Z" fill="#EA8000"/>
<path d="M246 196H286V216H246V196Z" fill="#FF9E1F"/>
<path d="M226 216H266V236H226V216Z" fill="#EA8000"/>
<path d="M246 236H286V256H246V236Z" fill="#FF9E1F"/>
<path d="M226 256H266V276H226V256Z" fill="#EA8000"/>
<path d="M246 276H286V296H246V276Z" fill="#FF9E1F"/>
<path d="M226 296H266V316H226V296Z" fill="#EA8000"/>
<path d="M246 316H286V336H246V316Z" fill="#FF9E1F"/>
<path d="M226 376H266V396H226V376Z" fill="white"/>
<path d="M295.4 400.9L279.2 346.7C277.3 340.3 271.5 336 264.8 336H247.2C240.6 336 234.7 340.4 232.8 346.7L216.6 400.9C216.2 402.3 216 403.7 216 405.2V453C216 461.3 222.7 468 231 468H281C289.3 468 296 461.3 296 453V405.2C296 403.7 295.8 402.3 295.4 400.9ZM231 438V433C231 424.7 237.7 418 246 418H266C274.3 418 281 424.7 281 433V438C281 446.3 274.3 453 266 453H246C237.7 453 231 446.3 231 438Z" fill="#EA8000"/>
</svg>
