<svg width="24" height="24" viewBox="0 0 24 24" fill="none" xmlns="http://www.w3.org/2000/svg">
<g clip-path="url(#clip0_1848_5557)">
<path d="M6.33264 5.69098H0.840126C0.456238 5.69098 0.145035 6.00218 0.145035 6.38607V23.3049C0.145035 23.6888 0.456238 24 0.840126 24H6.33264C6.71653 24 7.02773 23.6888 7.02773 23.3049V6.38607C7.02773 6.00218 6.71653 5.69098 6.33264 5.69098Z" fill="#E3A72F"/>
<path d="M5.4094 6.7175H1.76344C1.62851 6.7175 1.51913 6.82688 1.51913 6.9618V13.7025C1.51913 13.8374 1.62851 13.9468 1.76344 13.9468H5.4094C5.54432 13.9468 5.6537 13.8374 5.6537 13.7025V6.9618C5.6537 6.82688 5.54432 6.7175 5.4094 6.7175Z" fill="#EDF3F3"/>
<path d="M3.58635 21.309C4.31421 21.309 4.90425 20.7189 4.90425 19.9911C4.90425 19.2632 4.31421 18.6732 3.58635 18.6732C2.8585 18.6732 2.26846 19.2632 2.26846 19.9911C2.26846 20.7189 2.8585 21.309 3.58635 21.309Z" fill="#EDF3F3"/>
<path d="M3.37527 7.53827H3.78561V11.1052H3.37527V7.53827Z" fill="#058789"/>
<path d="M2.51906 7.53827H2.9294V11.1052H2.51906V7.53827Z" fill="#058789"/>
<path d="M4.23154 7.53827H4.64189V12.3679H4.23154V7.53827Z" fill="#058789"/>
<path d="M7.72281 5.69098H13.2153C13.3066 5.69098 13.397 5.70896 13.4813 5.74389C13.5657 5.77882 13.6423 5.83002 13.7068 5.89457C13.7714 5.95911 13.8226 6.03574 13.8575 6.12007C13.8924 6.2044 13.9104 6.29479 13.9104 6.38607V23.3049C13.9104 23.3962 13.8924 23.4866 13.8575 23.5709C13.8226 23.6553 13.7714 23.7319 13.7068 23.7964C13.6423 23.861 13.5657 23.9122 13.4813 23.9471C13.397 23.982 13.3066 24 13.2153 24H7.72279C7.63151 24 7.54113 23.982 7.4568 23.9471C7.37247 23.9122 7.29584 23.861 7.2313 23.7964C7.16676 23.7319 7.11556 23.6553 7.08063 23.5709C7.0457 23.4866 7.02772 23.3962 7.02772 23.3049V6.38609C7.02772 6.29481 7.04569 6.20442 7.08062 6.12008C7.11555 6.03575 7.16675 5.95912 7.2313 5.89458C7.29585 5.83003 7.37247 5.77883 7.45681 5.74389C7.54114 5.70896 7.63153 5.69098 7.72281 5.69098Z" fill="#F77C5B"/>
<path d="M12.292 6.7175H8.64607C8.51114 6.7175 8.40176 6.82688 8.40176 6.9618V13.7025C8.40176 13.8374 8.51114 13.9468 8.64607 13.9468H12.292C12.427 13.9468 12.5363 13.8374 12.5363 13.7025V6.9618C12.5363 6.82688 12.427 6.7175 12.292 6.7175Z" fill="#EDF3F3"/>
<path d="M10.469 21.309C11.1969 21.309 11.7869 20.7189 11.7869 19.9911C11.7869 19.2632 11.1969 18.6732 10.469 18.6732C9.7412 18.6732 9.15115 19.2632 9.15115 19.9911C9.15115 20.7189 9.7412 21.309 10.469 21.309Z" fill="#EDF3F3"/>
<path d="M10.258 7.53827H10.6683V12.3679H10.258V7.53827Z" fill="#058789"/>
<path d="M9.40176 7.53827H9.8121V11.1052H9.40176V7.53827Z" fill="#058789"/>
<path d="M11.1142 7.53827H11.5245V11.1052H11.1142V7.53827Z" fill="#058789"/>
<path d="M13.9228 6.81296L13.9104 22.2454L17.6012 23.9803L13.9228 6.81296Z" fill="#D54B1A"/>
<path d="M14.471 5.99267L19.8646 4.96558C20.0456 4.93111 20.2329 4.96997 20.3853 5.0736C20.5377 5.17723 20.6427 5.33716 20.6771 5.51818L23.841 22.1325C23.8754 22.3135 23.8366 22.5008 23.7329 22.6532C23.6293 22.8055 23.4694 22.9105 23.2884 22.945L17.8947 23.9721C17.7137 24.0065 17.5264 23.9677 17.374 23.8641C17.2217 23.7604 17.1167 23.6005 17.0822 23.4195L13.9184 6.80524C13.8839 6.6242 13.9228 6.43689 14.0264 6.2845C14.13 6.13212 14.2899 6.02715 14.471 5.99267Z" fill="#E3A72F"/>
<path d="M19.1503 6.14654L15.57 6.82834C15.4375 6.85357 15.3505 6.98143 15.3757 7.11393L16.6362 13.7333C16.6615 13.8658 16.7893 13.9527 16.9218 13.9275L20.5022 13.2457C20.6347 13.2205 20.7216 13.0926 20.6964 12.9601L19.4359 6.34076C19.4107 6.20827 19.2828 6.12131 19.1503 6.14654Z" fill="#EDF3F3"/>
<path d="M19.8432 20.8545C20.571 20.8545 21.1611 20.2644 21.1611 19.5366C21.1611 18.8087 20.571 18.2187 19.8432 18.2187C19.1153 18.2187 18.5253 18.8087 18.5253 19.5366C18.5253 20.2644 19.1153 20.8545 19.8432 20.8545Z" fill="#EDF3F3"/>
<path d="M17.3063 7.33286L17.7093 7.25612L18.6124 11.9988L18.2095 12.0756L17.3063 7.33286Z" fill="#058789"/>
<path d="M16.4656 7.49295L16.8686 7.41622L17.5356 10.919L17.1326 10.9957L16.4656 7.49295Z" fill="#058789"/>
<path d="M18.1471 7.17288L18.5501 7.09615L19.2171 10.5989L18.8142 10.6757L18.1471 7.17288Z" fill="#058789"/>
<path d="M3.78561 2.27194L5.00371 3.02954L6.22181 2.27194V5.691H3.78561V2.27194Z" fill="#058789"/>
<path d="M12.5412 2.90995L11.3982 4.14001V0.308934C11.3982 0.268364 11.3902 0.228192 11.3747 0.19071C11.3592 0.153228 11.3364 0.119172 11.3077 0.0904846C11.279 0.0617975 11.245 0.0390416 11.2075 0.0235162C11.17 0.00799081 11.1298 0 11.0893 0C11.0487 0 11.0085 0.00799081 10.971 0.0235162C10.9336 0.0390416 10.8995 0.0617975 10.8708 0.0904846C10.8421 0.119172 10.8194 0.153228 10.8038 0.19071C10.7883 0.228192 10.7803 0.268364 10.7803 0.308934V4.13941L9.63746 2.90995L9.32068 3.20498L11.0896 5.10714L12.8581 3.20498L12.5412 2.90995Z" fill="#058789"/>
<path d="M15.5854 1.38729L14.2953 0L13.0055 1.38729L13.2365 1.60247L14.0703 0.705274V4.88183C14.0703 4.94159 14.094 4.9989 14.1363 5.04115C14.1785 5.08341 14.2358 5.10714 14.2956 5.10714C14.3554 5.10714 14.4127 5.08341 14.4549 5.04115C14.4972 4.9989 14.5209 4.94159 14.5209 4.88183V0.705872L15.3544 1.60247L15.5854 1.38729Z" fill="#E3A72F"/>
</g>
<defs>
<clipPath id="clip0_1848_5557">
<rect width="24" height="24" fill="white"/>
</clipPath>
</defs>
</svg>
