<svg width="20" height="24" viewBox="0 0 20 24" fill="none" xmlns="http://www.w3.org/2000/svg">
<path d="M18.7814 5.5044L14.2166 0.946438C14.0095 0.729069 13.7208 0.606799 13.4219 0.600006H3.16137C1.9081 0.600006 0.882385 1.62911 0.882385 2.88238V21.1176C0.882385 22.3777 1.9047 23.4 3.16137 23.4H16.8386C18.0987 23.4 19.1176 22.3777 19.1176 21.1176V6.29916C19.1176 6.00027 18.992 5.71498 18.7814 5.5044ZM13.4219 2.58001L17.141 6.29916H13.9983C13.68 6.29916 13.4219 6.04106 13.4219 5.72269V2.58001ZM14.6814 15.8409H11.5585V18.9638C11.5585 19.8281 10.8661 20.5252 10.0017 20.5252C9.13733 20.5252 8.44491 19.8281 8.44491 18.9638V15.8409H5.32201C4.45764 15.8409 3.76056 15.1438 3.76056 14.2794C3.76056 13.4151 4.45764 12.7226 5.32201 12.7226H8.44491V9.60439C8.44491 8.74001 9.13733 8.04294 10.0017 8.04294C10.8661 8.04294 11.5585 8.74001 11.5585 9.60439V12.7226H14.6814C15.5458 12.7226 16.2428 13.4151 16.2428 14.2794C16.2428 15.1438 15.5411 15.8409 14.6814 15.8409Z" fill="#5C5E64"/>
</svg>
