<svg width="25" height="25" viewBox="0 0 25 25" fill="none" xmlns="http://www.w3.org/2000/svg">
<path d="M12.4993 6.25033C13.6452 6.25033 14.5827 7.18783 14.5827 8.33366C14.5827 9.47949 13.6452 10.417 12.4993 10.417C11.3535 10.417 10.416 9.47949 10.416 8.33366C10.416 7.18783 11.3535 6.25033 12.4993 6.25033ZM12.4993 16.667C15.3118 16.667 18.541 18.0107 18.7493 18.7503H6.24935C6.48893 18.0003 9.69727 16.667 12.4993 16.667ZM12.4993 4.16699C10.1973 4.16699 8.33268 6.03158 8.33268 8.33366C8.33268 10.6357 10.1973 12.5003 12.4993 12.5003C14.8014 12.5003 16.666 10.6357 16.666 8.33366C16.666 6.03158 14.8014 4.16699 12.4993 4.16699ZM12.4993 14.5837C9.7181 14.5837 4.16602 15.9795 4.16602 18.7503V20.8337H20.8327V18.7503C20.8327 15.9795 15.2806 14.5837 12.4993 14.5837Z" fill="#5A5D6C"/>
</svg>
