<svg width="25" height="25" viewBox="0 0 25 25" fill="none" xmlns="http://www.w3.org/2000/svg">
<path d="M20.2425 13.5205C20.2841 13.1872 20.3154 12.8538 20.3154 12.4997C20.3154 12.1455 20.2841 11.8122 20.2425 11.4788L22.4404 9.76009C22.6383 9.60384 22.6904 9.32259 22.5654 9.09342L20.482 5.48926C20.3883 5.32259 20.2112 5.22884 20.0237 5.22884C19.9612 5.22884 19.8987 5.23926 19.8466 5.26009L17.2529 6.30176C16.7112 5.88509 16.1279 5.54134 15.4925 5.28092L15.0966 2.52051C15.0654 2.27051 14.8466 2.08301 14.5862 2.08301H10.4196C10.1591 2.08301 9.94038 2.27051 9.90913 2.52051L9.5133 5.28092C8.87788 5.54134 8.29455 5.89551 7.75288 6.30176L5.15913 5.26009C5.09663 5.23926 5.03413 5.22884 4.97163 5.22884C4.79455 5.22884 4.61747 5.32259 4.52372 5.48926L2.44038 9.09342C2.30497 9.32259 2.36747 9.60384 2.56538 9.76009L4.7633 11.4788C4.72163 11.8122 4.69038 12.1559 4.69038 12.4997C4.69038 12.8434 4.72163 13.1872 4.7633 13.5205L2.56538 15.2393C2.36747 15.3955 2.31538 15.6768 2.44038 15.9059L4.52372 19.5101C4.61747 19.6768 4.79455 19.7705 4.98205 19.7705C5.04455 19.7705 5.10705 19.7601 5.15913 19.7393L7.75288 18.6976C8.29455 19.1143 8.87788 19.458 9.5133 19.7184L9.90913 22.4788C9.94038 22.7288 10.1591 22.9163 10.4196 22.9163H14.5862C14.8466 22.9163 15.0654 22.7288 15.0966 22.4788L15.4925 19.7184C16.1279 19.458 16.7112 19.1038 17.2529 18.6976L19.8466 19.7393C19.9091 19.7601 19.9716 19.7705 20.0341 19.7705C20.2112 19.7705 20.3883 19.6768 20.482 19.5101L22.5654 15.9059C22.6904 15.6768 22.6383 15.3955 22.4404 15.2393L20.2425 13.5205ZM18.18 11.7393C18.2216 12.0622 18.2321 12.2809 18.2321 12.4997C18.2321 12.7184 18.2112 12.9476 18.18 13.2601L18.0341 14.4372L18.9612 15.1663L20.0862 16.0413L19.357 17.3018L18.0341 16.7705L16.9508 16.333L16.0133 17.0413C15.5654 17.3747 15.1383 17.6247 14.7112 17.8018L13.6071 18.2497L13.4404 19.4268L13.2321 20.833H11.7737L11.4091 18.2497L10.305 17.8018C9.85705 17.6143 9.44038 17.3747 9.02372 17.0622L8.0758 16.333L6.97163 16.7809L5.64872 17.3122L4.91955 16.0518L6.04455 15.1768L6.97163 14.4476L6.8258 13.2705C6.79455 12.9476 6.77372 12.708 6.77372 12.4997C6.77372 12.2913 6.79455 12.0518 6.8258 11.7393L6.97163 10.5622L6.04455 9.83301L4.91955 8.95801L5.64872 7.69759L6.97163 8.22884L8.05497 8.66634L8.99247 7.95801C9.44038 7.62467 9.86747 7.37467 10.2946 7.19759L11.3987 6.74967L11.5654 5.57259L11.7737 4.16634H13.2216L13.5862 6.74967L14.6904 7.19759C15.1383 7.38509 15.555 7.62467 15.9716 7.93717L16.9196 8.66634L18.0237 8.21842L19.3466 7.68717L20.0758 8.94759L18.9612 9.83301L18.0341 10.5622L18.18 11.7393ZM12.5029 8.33301C10.2008 8.33301 8.33622 10.1976 8.33622 12.4997C8.33622 14.8018 10.2008 16.6663 12.5029 16.6663C14.805 16.6663 16.6696 14.8018 16.6696 12.4997C16.6696 10.1976 14.805 8.33301 12.5029 8.33301ZM12.5029 14.583C11.3571 14.583 10.4196 13.6455 10.4196 12.4997C10.4196 11.3538 11.3571 10.4163 12.5029 10.4163C13.6487 10.4163 14.5862 11.3538 14.5862 12.4997C14.5862 13.6455 13.6487 14.583 12.5029 14.583Z" fill="#5A5D6C"/>
</svg>
