<svg width="18" height="24" viewBox="0 0 18 24" fill="none" xmlns="http://www.w3.org/2000/svg">
<path d="M17.1375 5.25L13.5 1.617C12.9998 1.10925 12.7192 0.75 12 0.75V6.75H18C18 6.141 17.703 5.8125 17.1375 5.25ZM10.5 6.75V0.75H1.5C0.675 0.75 0 1.425 0 2.25V21.75C0 22.575 0.675 23.25 1.5 23.25H6.75V18.75H6C5.20275 18.75 4.5 18.1238 4.5 17.25C4.5 16.6995 4.731 16.353 5.32725 15.75L7.5 13.5885C7.98225 13.101 8.35575 12.75 9 12.75C9.64425 12.75 10.0177 13.101 10.5 13.5885L12.6727 15.75C13.269 16.353 13.5 16.6995 13.5 17.25C13.5 18.1238 12.7965 18.75 12 18.75H11.25V23.25H16.5C17.325 23.25 18 22.575 18 21.75V8.25H12C11.1128 8.25 10.5 7.53525 10.5 6.75Z" fill="#5C5E64"/>
</svg>
