<svg width="166" height="166" viewBox="0 0 166 166" fill="none" xmlns="http://www.w3.org/2000/svg">
<g opacity="0.1">
<path d="M82.9997 13.8335C89.8396 13.8335 96.5259 15.8618 102.213 19.6618C107.9 23.4619 112.333 28.8631 114.951 35.1824C117.568 41.5016 118.253 48.4552 116.919 55.1637C115.584 61.8722 112.29 68.0344 107.454 72.8709C102.617 77.7075 96.4551 81.0013 89.7466 82.3357C83.038 83.6701 76.0845 82.9852 69.7652 80.3677C63.4459 77.7501 58.0448 73.3175 54.2447 67.6303C50.4446 61.9431 48.4163 55.2568 48.4163 48.4168L48.4509 46.9159C48.8377 38.0124 52.6466 29.602 59.0834 23.4384C65.5201 17.2748 74.0878 13.834 82.9997 13.8335ZM96.833 96.8335C106.005 96.8335 114.801 100.477 121.287 106.963C127.773 113.448 131.416 122.245 131.416 131.417V138.334C131.416 142.002 129.959 145.521 127.365 148.115C124.77 150.709 121.252 152.167 117.583 152.167H48.4163C44.7475 152.167 41.229 150.709 38.6347 148.115C36.0404 145.521 34.583 142.002 34.583 138.334V131.417C34.583 122.245 38.2266 113.448 44.7122 106.963C51.1979 100.477 59.9943 96.8335 69.1663 96.8335H96.833Z" fill="#2579A7"/>
</g>
</svg>
