<svg width="22" height="30" viewBox="0 0 22 30" fill="none" xmlns="http://www.w3.org/2000/svg">
<path d="M7.17614 30.0006C7.00859 30.0007 6.84305 29.9642 6.69113 29.8935C6.53922 29.8228 6.40463 29.7197 6.29681 29.5915C6.18899 29.4632 6.11057 29.3129 6.06705 29.1511C6.02352 28.9893 6.01596 28.82 6.04489 28.6549V28.6481L7.80177 19.0006H0.999893C0.811093 19.0006 0.626156 18.9471 0.466473 18.8464C0.306789 18.7456 0.178884 18.6017 0.0975503 18.4314C0.0162166 18.261 -0.0152222 18.0711 0.0068707 17.8836C0.0289636 17.6961 0.103685 17.5186 0.222393 17.3718L13.9205 0.438077C14.0764 0.240155 14.2929 0.098748 14.5368 0.0354805C14.7807 -0.027787 15.0386 -0.00943249 15.271 0.0877372C15.5035 0.184907 15.6977 0.355543 15.8241 0.573553C15.9504 0.791562 16.0018 1.04494 15.9705 1.29495C15.9705 1.3137 15.9655 1.33183 15.9624 1.35058L14.1993 11.0006H20.9999C21.1887 11.0006 21.3736 11.0541 21.5333 11.1548C21.693 11.2555 21.8209 11.3994 21.9022 11.5698C21.9836 11.7402 22.015 11.9301 21.9929 12.1176C21.9708 12.3051 21.8961 12.4825 21.7774 12.6293L8.07739 29.5631C7.96975 29.6991 7.8328 29.8091 7.67676 29.8848C7.52072 29.9606 7.3496 30.0001 7.17614 30.0006Z" fill="#FF4239"/>
</svg>
